<svg width="260" height="250" viewBox="0 0 260 250" fill="none" xmlns="http://www.w3.org/2000/svg">
<g clip-path="url(#clip0)">
<path d="M79.768 162.307C79.4153 162.893 78.8597 163.329 78.2067 163.533C77.5537 163.737 76.8486 163.693 76.2254 163.411C75.6022 163.129 75.1042 162.628 74.826 162.003C74.5477 161.378 74.5085 160.672 74.7159 160.02L63.9282 137.848L69.092 134.716L78.4085 158.267C78.444 158.28 78.4791 158.295 78.5137 158.31C78.5483 158.326 78.5827 158.341 78.6169 158.358L78.7202 158.409C78.7547 158.427 78.7883 158.446 78.8208 158.467C79.4552 158.85 79.9116 159.47 80.0896 160.189C80.2676 160.909 80.1525 161.67 79.7698 162.305L79.768 162.307Z" fill="#FEB8B8"/>
<path d="M65.9875 146.397L73.6508 144.432C73.6508 144.432 73.4005 143.867 72.9938 142.929C72.5872 141.991 72.019 140.683 71.3799 139.2C70.7408 137.717 70.0317 136.058 69.3389 134.418C68.6461 132.779 67.9714 131.159 67.4053 129.756C66.8392 128.352 66.1926 127.51 65.5458 127.04C65.0096 126.632 64.3343 126.453 63.6666 126.54C63.1476 126.617 62.6516 126.806 62.2126 127.094C62.0048 127.223 61.8094 127.371 61.629 127.537L59.8522 130.769L65.9875 146.397Z" fill="#CCCCCC"/>
<path d="M58.3719 206.115L63.0618 206.097L61.5495 218.356L58.3719 218.372V206.115Z" fill="#FEB8B8"/>
<path d="M57.5618 221.457L67.8019 221.402V221.273C67.8018 221.01 67.7759 220.748 67.7245 220.49C67.6238 219.981 67.4232 219.498 67.1342 219.067C66.8406 218.631 66.4644 218.256 66.0267 217.965C65.5949 217.677 65.1103 217.479 64.6011 217.38C64.343 217.331 64.0806 217.306 63.8178 217.308V217.308L57.5607 217.339L57.5618 221.457Z" fill="#2F2E41"/>
<path d="M73.3883 206.057L78.0647 206.039L76.5574 218.282L73.3886 218.298L73.3883 206.057Z" fill="#FEB8B8"/>
<path d="M72.5805 221.377L82.7938 221.323V221.194C82.7936 220.932 82.7677 220.67 82.7164 220.412C82.616 219.904 82.4159 219.421 82.1276 218.991C81.8349 218.555 81.4595 218.181 81.0227 217.89C80.5921 217.603 80.1089 217.405 79.601 217.307C79.3436 217.257 79.0819 217.233 78.8197 217.235V217.235L72.58 217.265L72.5805 221.377Z" fill="#2F2E41"/>
<path d="M73.587 155.949L81.4508 185.308L78.5723 213.451L72.1991 213.627L73.5868 188.215L65.6358 175.533L63.9114 213.799L58.1294 213.391L54.9142 180.49C53.8218 177.921 53.0207 175.237 52.5259 172.49C52.137 170.333 51.9478 168.145 51.9608 165.953C51.9674 164.478 52.0807 163.005 52.2999 161.546C52.3782 161.003 52.4842 160.463 52.6175 159.93L54.9622 157.553L73.587 155.949Z" fill="#2F2E41"/>
<path d="M63.1681 160.859C64.4904 160.859 65.7315 160.817 66.8578 160.733C68.0072 160.654 69.1506 160.504 70.2812 160.282C71.2439 160.102 72.1813 159.807 73.0733 159.403C73.7914 159.093 74.4158 158.6 74.8844 157.973L74.938 157.896L72.7887 143.901L70.4709 128.167C70.3186 127.125 69.7887 126.176 68.9822 125.5C68.1758 124.824 67.149 124.469 66.0974 124.501L58.8382 124.724C57.7597 124.757 56.7384 125.217 55.9992 126.003C55.2599 126.79 54.8631 127.838 54.8962 128.916C54.8974 128.957 54.8993 128.998 54.9018 129.039L55.8547 144.688L52.3396 160.124L52.5886 160.159C52.6887 160.172 53.0745 160.223 53.6788 160.291C54.4686 160.38 55.2751 160.46 56.0758 160.529C57.2085 160.626 58.3172 160.703 59.3705 160.757C60.7052 160.825 61.9855 160.858 63.1681 160.859Z" fill="#CCCCCC"/>
<path d="M67.1963 121.721H67.202C67.5096 121.72 67.8044 121.598 68.0217 121.38C68.239 121.162 68.361 120.867 68.361 120.559V114.085C68.3622 112.925 68.1302 111.777 67.6788 110.708C66.7947 108.623 65.1402 106.96 63.0602 106.065C61.7449 105.5 60.3103 105.271 58.8847 105.397C57.4591 105.524 56.0871 106.002 54.8916 106.789C53.6961 107.576 52.7143 108.648 52.0342 109.907C51.3542 111.167 50.997 112.576 50.9948 114.008V120.492C50.9946 120.648 51.0259 120.803 51.0867 120.947C51.2058 121.227 51.4286 121.45 51.7085 121.57C51.8522 121.632 52.0067 121.663 52.1629 121.664L67.1963 121.721V121.721Z" fill="#2F2E41"/>
<path d="M55.7579 111.865C55.1524 112.971 54.8881 114.232 54.9986 115.489C55.1091 116.746 55.5893 117.941 56.3787 118.925C57.168 119.909 58.2311 120.637 59.4335 121.016C60.636 121.396 61.924 121.411 63.1348 121.058C63.9367 120.828 64.6849 120.441 65.3361 119.919C65.9873 119.397 66.5284 118.751 66.9282 118.018C67.5323 116.912 67.7956 115.652 67.6848 114.397C67.574 113.141 67.0941 111.947 66.3056 110.964C65.5172 109.981 64.4555 109.253 63.2543 108.873C62.0532 108.493 60.7664 108.477 59.5563 108.827C58.7538 109.057 58.0048 109.444 57.3529 109.965C56.701 110.487 56.159 111.132 55.7584 111.865L55.7579 111.865Z" fill="#FEB8B8"/>
<path d="M70.4139 114.612C70.4146 113.695 70.2311 112.787 69.8741 111.942C69.1752 110.293 67.8671 108.978 66.2225 108.27C65.3788 107.908 64.471 107.72 63.553 107.717L62.2577 107.71H62.2141C60.4027 107.711 58.6658 108.432 57.3857 109.715C56.1056 110.997 55.3871 112.735 55.3882 114.548V114.677L58.1284 114.688L59.0627 112.076L59.2495 114.693L60.6647 114.699L61.1359 113.383L61.2303 114.702L70.4126 114.743L70.4139 114.612Z" fill="#2F2E41"/>
<path d="M81.4459 128.233C81.8677 128.336 82.262 128.53 82.6018 128.801C82.8673 129.011 83.0943 129.266 83.2727 129.554C83.6247 130.124 83.7799 130.793 83.7142 131.46C83.681 131.797 83.5897 132.125 83.4443 132.431C83.2651 132.812 83.0071 133.15 82.6875 133.424C82.3679 133.698 81.9939 133.9 81.5902 134.019C81.1865 134.137 80.7622 134.169 80.3455 134.111C79.9287 134.053 79.5289 133.908 79.1725 133.684C79.1461 133.667 79.1203 133.65 79.0951 133.633C79.0698 133.615 79.0445 133.598 79.0192 133.579C78.9942 133.561 78.9697 133.542 78.9454 133.524C78.9211 133.505 78.8971 133.486 78.8734 133.466L63.7533 138.85C63.288 139.016 62.7816 139.026 62.3102 138.878C61.8389 138.731 61.4281 138.435 61.1398 138.034L57.5535 133.068L61.8883 130.148L64.162 132.732L78.0002 129.978C78.0154 129.942 78.0311 129.907 78.0472 129.871C78.0634 129.836 78.0806 129.8 78.0988 129.765C78.116 129.731 78.1344 129.696 78.154 129.66C78.1736 129.625 78.1937 129.59 78.2142 129.557C78.5444 129.023 79.0349 128.608 79.6155 128.37C80.196 128.132 80.8369 128.085 81.4464 128.233L81.4459 128.233Z" fill="#FEB8B8"/>
<path d="M63.9181 131.102C63.4658 130.537 62.8344 129.804 62.1909 129.076C61.5474 128.349 60.8964 127.628 60.4044 127.089C59.9123 126.549 59.5815 126.192 59.5815 126.192C59.1275 125.506 58.4498 124.997 57.6637 124.754C56.8775 124.51 56.0312 124.546 55.2687 124.856C54.5062 125.166 53.8744 125.73 53.4806 126.453C53.0868 127.176 52.9554 128.013 53.1085 128.822C53.196 129.288 53.3768 129.731 53.6401 130.125C53.6401 130.125 54.1334 130.771 54.8786 131.735C55.6237 132.7 56.6194 133.982 57.6244 135.258C58.6294 136.534 59.6442 137.803 60.4266 138.74C61.2089 139.677 61.7598 140.282 61.8372 140.23L64.5663 132.114C64.6434 132.062 64.3704 131.666 63.9181 131.102Z" fill="#CCCCCC"/>
<path d="M62.298 121.517C62.341 121.726 62.3243 121.943 62.25 122.144C62.2127 122.246 62.1612 122.343 62.097 122.431C62.0421 122.506 61.9786 122.575 61.9076 122.635C61.6973 122.813 61.4306 122.91 61.1552 122.909C61.138 122.909 61.1208 122.908 61.1036 122.907C61.0864 122.906 61.0692 122.905 61.052 122.903C61.0348 122.902 61.0176 122.9 61.0004 122.898C60.9832 122.895 60.966 122.893 60.9488 122.89L59.9763 122.713L58.6367 119.85V122.472L54.2147 121.676V110.546L61.6277 110.582L61.4445 110.795C60.8362 111.509 60.4367 112.378 60.2901 113.305C60.1463 114.244 60.1643 115.2 60.3435 116.133C60.5176 117.077 60.782 118.002 61.1328 118.895C61.4395 119.687 61.7915 120.46 62.1871 121.211C62.2382 121.307 62.2755 121.41 62.298 121.517Z" fill="#2F2E41"/>
<path d="M225.719 222H35V221.457H226L225.719 222Z" fill="#CACACA"/>
<path d="M175.167 81.5962H174.161V53.9821C174.161 49.7434 172.478 45.6783 169.482 42.6811C166.486 39.6838 162.422 38 158.185 38H99.7044C97.6064 38 95.529 38.4133 93.5908 39.2165C91.6525 40.0196 89.8914 41.1968 88.4079 42.6809C86.9244 44.1649 85.7477 45.9268 84.9448 47.8658C84.1419 49.8048 83.7287 51.8831 83.7286 53.9819V205.474C83.7286 207.573 84.1418 209.652 84.9447 211.591C85.7475 213.53 86.9243 215.291 88.4077 216.776C89.8912 218.26 91.6523 219.437 93.5906 220.24C95.5288 221.043 97.6062 221.457 99.7041 221.457H158.184C162.421 221.457 166.485 219.773 169.481 216.776C172.477 213.778 174.16 209.713 174.16 205.474V101.252H175.166L175.167 81.5962Z" fill="#3F3D56"/>
<path d="M170.903 52.9117V206.544C170.902 209.758 169.626 212.84 167.355 215.113C165.083 217.386 162.003 218.663 158.791 218.664H99.1099C95.8962 218.665 92.814 217.388 90.541 215.115C88.2681 212.842 86.9907 209.759 86.9898 206.544V52.9117C86.9907 49.6968 88.2681 46.6139 90.5409 44.3412C92.8137 42.0684 95.8958 40.7918 99.1093 40.7922H106.349C105.993 41.6667 105.858 42.6153 105.955 43.5544C106.052 44.4935 106.378 45.3944 106.904 46.178C107.43 46.9616 108.141 47.6039 108.973 48.0484C109.806 48.4929 110.735 48.7259 111.679 48.7271H145.704C146.647 48.7259 147.576 48.4929 148.409 48.0484C149.241 47.6039 149.952 46.9616 150.478 46.178C151.005 45.3944 151.331 44.4935 151.427 43.5544C151.524 42.6153 151.389 41.6667 151.033 40.7922H158.788C162.001 40.7927 165.081 42.0695 167.353 44.3417C169.625 46.6139 170.901 49.6956 170.903 52.9094V52.9117Z" fill="white"/>
<path d="M129.586 114.374C122.791 114.377 116.273 111.679 111.467 106.874C106.66 102.069 103.958 95.5513 103.955 88.7536V88.7309C103.955 88.6772 103.955 88.6207 103.958 88.567C104.035 74.5247 115.534 63.0895 129.586 63.0895C136.384 63.0891 142.903 65.7903 147.71 70.5988C152.517 75.4074 155.218 81.9293 155.219 88.73C155.219 95.5306 152.519 102.053 147.712 106.862C142.906 111.671 136.387 114.373 129.589 114.373H129.586V114.374ZM129.586 63.629C122.961 63.6438 116.61 66.2733 111.913 70.946C107.215 75.6187 104.55 81.9572 104.498 88.5843C104.495 88.6416 104.495 88.6875 104.495 88.7311C104.494 93.6965 105.965 98.5505 108.722 102.679C111.479 106.808 115.398 110.027 119.983 111.927C124.569 113.828 129.614 114.326 134.482 113.358C139.35 112.39 143.822 109.999 147.332 106.489C150.842 102.978 153.233 98.5049 154.202 93.6351C155.17 88.7653 154.674 83.7174 152.775 79.1297C150.877 74.5421 147.661 70.6208 143.534 67.8617C139.408 65.1026 134.556 63.6296 129.593 63.629H129.586V63.629Z" fill="#CCCCCC"/>
<path d="M156.091 141.334H103.057C102.797 141.334 102.547 141.23 102.363 141.046C102.179 140.862 102.076 140.612 102.075 140.352V127.191C102.076 126.931 102.179 126.681 102.363 126.497C102.547 126.313 102.797 126.209 103.057 126.209H156.091C156.351 126.209 156.6 126.313 156.785 126.497C156.969 126.681 157.072 126.931 157.073 127.191V140.352C157.072 140.612 156.969 140.862 156.785 141.046C156.6 141.23 156.351 141.334 156.091 141.334V141.334ZM103.057 126.601C102.901 126.602 102.751 126.664 102.641 126.774C102.53 126.885 102.468 127.035 102.468 127.191V140.352C102.468 140.508 102.53 140.658 102.641 140.769C102.751 140.879 102.901 140.941 103.057 140.941H156.091C156.247 140.941 156.397 140.879 156.507 140.769C156.618 140.658 156.68 140.508 156.68 140.352V127.191C156.68 127.035 156.618 126.885 156.507 126.774C156.397 126.664 156.247 126.602 156.091 126.601H103.057Z" fill="#E6E6E6"/>
<path d="M109.932 137.897C112.21 137.897 114.057 136.05 114.057 133.771C114.057 131.492 112.21 129.645 109.932 129.645C107.654 129.645 105.807 131.492 105.807 133.771C105.807 136.05 107.654 137.897 109.932 137.897Z" fill="#CCCCCC"/>
<path d="M119.458 131.02C119.276 131.02 119.101 131.093 118.972 131.222C118.843 131.351 118.771 131.526 118.771 131.708C118.771 131.89 118.843 132.065 118.972 132.194C119.101 132.323 119.276 132.396 119.458 132.396H151.867C152.049 132.403 152.227 132.337 152.361 132.213C152.495 132.089 152.574 131.917 152.581 131.735C152.588 131.552 152.522 131.375 152.398 131.241C152.274 131.107 152.102 131.028 151.92 131.021C151.91 131.02 151.9 131.02 151.89 131.02H119.458V131.02Z" fill="#E6E6E6"/>
<path d="M119.458 135.146C119.276 135.146 119.101 135.219 118.972 135.348C118.843 135.477 118.771 135.652 118.771 135.834C118.771 136.017 118.843 136.191 118.972 136.32C119.101 136.449 119.276 136.522 119.458 136.522H151.867C152.049 136.529 152.227 136.463 152.361 136.339C152.495 136.215 152.574 136.043 152.581 135.861C152.588 135.679 152.522 135.501 152.398 135.367C152.274 135.233 152.102 135.154 151.92 135.147C151.91 135.147 151.9 135.147 151.89 135.147H119.458V135.146Z" fill="#E6E6E6"/>
<path d="M156.091 163.342H103.057C102.797 163.342 102.547 163.238 102.363 163.054C102.179 162.87 102.076 162.62 102.075 162.36V149.199C102.076 148.938 102.179 148.689 102.363 148.505C102.547 148.32 102.797 148.217 103.057 148.216H156.091C156.351 148.217 156.6 148.32 156.785 148.505C156.969 148.689 157.072 148.938 157.073 149.199V162.36C157.072 162.62 156.969 162.87 156.784 163.054C156.6 163.238 156.351 163.342 156.091 163.342V163.342ZM103.057 148.609C102.901 148.61 102.751 148.672 102.641 148.782C102.53 148.893 102.468 149.043 102.468 149.199V162.36C102.468 162.516 102.53 162.666 102.641 162.777C102.751 162.887 102.901 162.949 103.057 162.949H156.091C156.247 162.949 156.397 162.887 156.507 162.777C156.618 162.666 156.68 162.516 156.68 162.36V149.199C156.68 149.043 156.618 148.893 156.507 148.782C156.397 148.672 156.247 148.61 156.091 148.609H103.057Z" fill="#E6E6E6"/>
<path d="M109.932 159.906C112.21 159.906 114.057 158.058 114.057 155.779C114.057 153.5 112.21 151.653 109.932 151.653C107.654 151.653 105.807 153.5 105.807 155.779C105.807 158.058 107.654 159.906 109.932 159.906Z" fill="#CCCCCC"/>
<path d="M119.458 153.027C119.276 153.027 119.101 153.1 118.972 153.229C118.843 153.358 118.771 153.533 118.771 153.715C118.771 153.897 118.843 154.072 118.972 154.201C119.101 154.33 119.276 154.403 119.458 154.403H151.867C152.047 154.402 152.219 154.33 152.347 154.204C152.475 154.077 152.548 153.906 152.551 153.726C152.554 153.546 152.486 153.373 152.363 153.242C152.239 153.111 152.069 153.034 151.89 153.028H119.458V153.027Z" fill="#E6E6E6"/>
<path d="M119.458 157.155C119.276 157.155 119.101 157.227 118.972 157.356C118.843 157.485 118.771 157.66 118.771 157.842C118.771 158.025 118.843 158.2 118.972 158.329C119.101 158.458 119.276 158.53 119.458 158.53H151.867C152.047 158.529 152.219 158.458 152.347 158.331C152.475 158.205 152.548 158.033 152.551 157.853C152.554 157.674 152.486 157.5 152.363 157.369C152.239 157.239 152.069 157.162 151.89 157.155H119.458V157.155Z" fill="#E6E6E6"/>
<path d="M156.091 185.35H103.057C102.797 185.349 102.547 185.246 102.363 185.062C102.179 184.877 102.076 184.628 102.075 184.367V171.207C102.076 170.946 102.179 170.696 102.363 170.512C102.547 170.328 102.797 170.225 103.057 170.224H156.091C156.351 170.225 156.6 170.328 156.785 170.512C156.969 170.696 157.072 170.946 157.073 171.207V184.367C157.072 184.628 156.969 184.878 156.785 185.062C156.6 185.246 156.351 185.35 156.091 185.35V185.35ZM103.057 170.617C102.901 170.617 102.751 170.679 102.641 170.79C102.53 170.9 102.468 171.05 102.468 171.207V184.367C102.468 184.524 102.53 184.674 102.641 184.784C102.751 184.895 102.901 184.957 103.057 184.957H156.091C156.247 184.957 156.397 184.895 156.507 184.784C156.618 184.674 156.68 184.524 156.68 184.367V171.207C156.68 171.05 156.618 170.9 156.507 170.79C156.397 170.679 156.247 170.617 156.091 170.617H103.057Z" fill="#E6E6E6"/>
<path d="M109.932 181.914C112.21 181.914 114.057 180.066 114.057 177.787C114.057 175.508 112.21 173.661 109.932 173.661C107.654 173.661 105.807 175.508 105.807 177.787C105.807 180.066 107.654 181.914 109.932 181.914Z" fill="#CCCCCC"/>
<path d="M119.458 175.036C119.276 175.036 119.101 175.108 118.972 175.237C118.843 175.366 118.771 175.541 118.771 175.724C118.771 175.906 118.843 176.081 118.972 176.21C119.101 176.339 119.276 176.411 119.458 176.411H151.867C152.049 176.418 152.227 176.353 152.361 176.229C152.495 176.105 152.574 175.933 152.581 175.75C152.588 175.568 152.522 175.39 152.398 175.256C152.274 175.123 152.102 175.043 151.92 175.036C151.91 175.036 151.9 175.036 151.89 175.036H119.458V175.036Z" fill="#E6E6E6"/>
<path d="M119.458 179.162C119.276 179.162 119.101 179.235 118.972 179.364C118.843 179.493 118.771 179.668 118.771 179.85C118.771 180.033 118.843 180.208 118.972 180.337C119.101 180.466 119.276 180.538 119.458 180.538H151.867C151.957 180.542 152.048 180.527 152.132 180.496C152.217 180.464 152.295 180.417 152.361 180.355C152.427 180.294 152.481 180.22 152.518 180.138C152.556 180.056 152.577 179.967 152.581 179.877C152.584 179.787 152.57 179.697 152.538 179.612C152.507 179.527 152.459 179.449 152.398 179.383C152.337 179.317 152.263 179.263 152.181 179.226C152.099 179.188 152.01 179.167 151.92 179.163C151.91 179.163 151.9 179.163 151.89 179.163H119.458V179.162Z" fill="#E6E6E6"/>
<path d="M97.7947 149.635H107.572C108.183 145.121 106.834 140.907 107.572 137.897H97.7947C95.954 141.81 95.954 145.723 97.7947 149.635Z" fill="#FF6584"/>
<path d="M161.271 172.285H151.494C151.86 167.772 153.042 163.557 151.494 160.547H161.271C163.112 164.46 163.112 168.372 161.271 172.285Z" fill="#6C63FF"/>
<path d="M143.186 195.027H133.408C133.775 190.514 134.956 186.299 133.408 183.289H143.186C145.026 187.201 145.027 191.114 143.186 195.027Z" fill="#6C63FF"/>
<path d="M142.685 110.849C138.665 113.288 134.025 114.508 129.326 114.362C124.627 114.216 120.072 112.71 116.212 110.025C117.021 108.322 118.297 106.882 119.89 105.874C121.484 104.866 123.331 104.33 125.217 104.329H133.333C135.372 104.328 137.361 104.954 139.033 106.12C140.705 107.286 141.98 108.936 142.685 110.85L142.685 110.849Z" fill="#6C63FF"/>
<path d="M118.514 87.3078C119.742 83.3938 122.533 79.804 126.394 78.4798C130.255 77.1555 136.991 78.3933 138.812 82.0662C141.435 87.3597 140.256 93.8421 138.865 99.5894C138.14 99.5509 137.407 99.5207 136.672 99.4934L135.633 96.0295V99.4593C129.901 99.282 123.934 99.393 117.963 99.5078C117.429 95.4397 117.286 91.2218 118.514 87.3078Z" fill="#2F2E41"/>
<path d="M126.926 99.9072C131.781 99.9072 135.716 95.9701 135.716 91.1134C135.716 86.2568 131.781 82.3197 126.926 82.3197C122.071 82.3197 118.136 86.2568 118.136 91.1134C118.136 95.9701 122.071 99.9072 126.926 99.9072Z" fill="#FEB8B8"/>
<path d="M121.192 80.5185C122.784 79.5481 124.606 79.0231 126.469 78.9985C128.332 78.974 130.168 79.4506 131.784 80.3787C133.4 81.3068 134.737 82.6522 135.656 84.2742C136.574 85.8963 137.04 87.7354 137.005 89.5992C132.376 89.8122 127.514 89.8677 122.584 89.8772L121.418 87.0241L120.731 89.8791C119.229 89.8791 117.724 89.8771 116.216 89.8731C116.154 88.0145 116.582 86.1723 117.455 84.5307C118.328 82.8891 119.617 81.5056 121.192 80.5185V80.5185Z" fill="#2F2E41"/>
<path d="M208.98 213.697C208.911 216.274 208.48 218.829 207.698 221.286C207.681 221.343 207.662 221.399 207.643 221.456H202.859C202.864 221.404 202.869 221.348 202.874 221.286C203.193 217.617 205.032 195.288 202.833 191.47C203.026 191.78 209.35 202.04 208.98 213.697Z" fill="#F0F0F0"/>
<path d="M208.212 221.101C208.129 221.22 208.042 221.339 207.953 221.457H200.447C200.504 221.355 200.57 221.236 200.646 221.101C201.887 218.862 205.556 212.169 208.963 205.229C212.624 197.772 215.983 190.032 215.7 187.231C215.787 187.863 218.32 207.123 208.212 221.101Z" fill="#F0F0F0"/>
</g>
<defs>
<clipPath id="clip0">
<rect width="191" height="184" fill="white" transform="translate(35 38)"/>
</clipPath>
</defs>
</svg>
