<svg width="260" height="250" viewBox="0 0 260 250" fill="none" xmlns="http://www.w3.org/2000/svg">
<g clip-path="url(#clip0)">
<path d="M180.14 130.416C187.141 126.352 196.47 125.503 203.214 129.975C194.795 132.583 187.577 138.063 182.836 145.445C181.019 148.299 179.297 151.66 176.068 152.724C174.06 153.387 171.818 152.978 169.911 152.067C168.004 151.156 166.369 149.78 164.757 148.418L164.242 148.3C168.137 141.24 173.139 134.479 180.14 130.416Z" fill="#F0F0F0"/>
<path d="M203.139 130.126C196.445 129.622 189.762 131.225 184.037 134.705C182.792 135.433 181.669 136.351 180.712 137.425C179.813 138.502 179.221 139.798 178.997 141.178C178.763 142.461 178.672 143.8 178.128 145.004C177.84 145.617 177.425 146.162 176.91 146.603C176.394 147.045 175.791 147.374 175.139 147.568C173.527 148.094 171.821 148.013 170.155 147.877C168.305 147.726 166.386 147.539 164.615 148.223C164.401 148.305 164.284 147.97 164.498 147.887C167.579 146.699 170.884 148.041 174.049 147.476C175.525 147.212 176.931 146.505 177.659 145.148C178.296 143.962 178.39 142.581 178.616 141.28C178.814 139.931 179.342 138.649 180.155 137.549C181.054 136.429 182.139 135.47 183.363 134.712C186.09 132.961 189.078 131.648 192.217 130.818C195.795 129.852 199.512 129.5 203.209 129.778C203.437 129.796 203.367 130.144 203.139 130.126L203.139 130.126Z" fill="white"/>
<path d="M185.814 133.477C185.356 132.444 185.283 131.284 185.607 130.203C185.931 129.122 186.633 128.19 187.585 127.575C187.778 127.451 187.981 127.743 187.788 127.867C186.9 128.438 186.247 129.306 185.947 130.314C185.647 131.321 185.719 132.402 186.152 133.36C186.245 133.569 185.907 133.684 185.814 133.477H185.814Z" fill="white"/>
<path d="M179.03 140.512C181.188 141.367 183.591 141.382 185.761 140.556C185.975 140.474 186.092 140.81 185.878 140.891C183.619 141.747 181.118 141.725 178.874 140.831C178.66 140.746 178.817 140.427 179.03 140.512V140.512Z" fill="white"/>
<path d="M195.727 130.318C195.82 130.754 196.021 131.16 196.312 131.5C196.603 131.84 196.974 132.103 197.392 132.265C197.607 132.348 197.45 132.667 197.236 132.585C196.775 132.403 196.365 132.112 196.043 131.737C195.721 131.362 195.497 130.915 195.389 130.434C195.375 130.389 195.379 130.341 195.399 130.299C195.42 130.258 195.456 130.225 195.5 130.208C195.544 130.193 195.593 130.196 195.636 130.217C195.679 130.237 195.711 130.273 195.727 130.318V130.318Z" fill="white"/>
<path d="M206.009 157.087C205.874 157.039 205.738 156.991 205.6 156.945C203.774 156.312 201.898 155.827 199.993 155.495C199.846 155.467 199.697 155.44 199.549 155.417C194.95 154.665 190.249 154.768 185.688 155.719C183.873 156.1 182.09 156.617 180.354 157.265C177.956 158.161 175.429 159.322 172.946 159.379C172.688 159.387 172.428 159.38 172.17 159.357L164.137 148.933C164.131 148.9 164.122 148.869 164.116 148.836L163.776 148.435C163.863 148.395 163.954 148.356 164.041 148.316C164.092 148.293 164.144 148.272 164.195 148.249C164.229 148.234 164.263 148.219 164.293 148.204C164.304 148.199 164.316 148.194 164.325 148.191C164.355 148.176 164.384 148.165 164.412 148.151C164.922 147.93 165.434 147.713 165.948 147.498C165.951 147.496 165.951 147.496 165.955 147.497C169.879 145.871 173.974 144.557 178.141 143.901C178.266 143.881 178.394 143.859 178.523 143.844C180.402 143.559 182.302 143.427 184.204 143.449C185.245 143.464 186.284 143.532 187.319 143.651C189.99 143.966 192.595 144.695 195.039 145.813C199.909 148.042 204.006 151.792 205.871 156.71C205.918 156.836 205.964 156.959 206.009 157.087Z" fill="#F0F0F0"/>
<path d="M205.858 157.165C200.819 152.762 194.51 150.048 187.828 149.406C186.392 149.243 184.939 149.305 183.523 149.591C182.152 149.913 180.893 150.594 179.877 151.563C178.912 152.447 178.027 153.463 176.862 154.099C176.261 154.415 175.599 154.602 174.919 154.647C174.24 154.692 173.559 154.594 172.921 154.36C171.314 153.816 170.001 152.732 168.754 151.628C167.369 150.402 165.95 149.107 164.121 148.594C163.9 148.532 164.01 148.194 164.231 148.256C167.412 149.148 169.237 152.195 172.106 153.634C173.445 154.306 174.996 154.581 176.4 153.933C177.628 153.367 178.541 152.321 179.511 151.417C180.488 150.458 181.687 149.75 183.003 149.357C184.4 149 185.849 148.883 187.286 149.009C190.525 149.241 193.708 149.977 196.718 151.191C200.16 152.557 203.341 154.497 206.124 156.928C206.297 157.079 206.029 157.314 205.858 157.165H205.858Z" fill="white"/>
<path d="M189.992 149.487C190.253 148.389 190.898 147.419 191.813 146.749C192.728 146.08 193.853 145.755 194.987 145.833C195.033 145.837 195.076 145.858 195.107 145.892C195.138 145.927 195.154 145.972 195.152 146.018C195.15 146.064 195.13 146.107 195.096 146.139C195.063 146.17 195.018 146.188 194.972 146.188C193.916 146.113 192.868 146.416 192.017 147.041C191.167 147.666 190.569 148.572 190.332 149.596C190.281 149.819 189.941 149.708 189.992 149.487V149.487Z" fill="white"/>
<path d="M180.308 151.051C181.512 153.023 183.422 154.471 185.655 155.108C185.876 155.171 185.766 155.508 185.545 155.446C183.223 154.779 181.239 153.267 179.989 151.212C179.87 151.016 180.189 150.856 180.308 151.051V151.051Z" fill="white"/>
<path d="M199.824 152.888C199.634 153.292 199.548 153.737 199.573 154.182C199.599 154.627 199.736 155.059 199.972 155.439C200.093 155.633 199.774 155.793 199.654 155.6C199.395 155.18 199.245 154.703 199.215 154.211C199.185 153.719 199.278 153.228 199.483 152.779C199.499 152.735 199.531 152.699 199.573 152.678C199.615 152.657 199.663 152.652 199.708 152.665C199.753 152.68 199.791 152.711 199.812 152.753C199.834 152.795 199.838 152.843 199.824 152.888V152.888Z" fill="white"/>
<path d="M43.8224 194.025C44.6438 186.017 49.454 178.038 57.0695 175.27C54.2277 183.556 54.4308 192.574 57.6429 200.726C58.8932 203.866 60.6131 207.228 59.5756 210.444C58.93 212.444 57.2758 214 55.41 214.992C53.5441 215.983 51.4597 216.482 49.4014 216.971L49.0019 217.315C45.5533 210.029 43.0011 202.033 43.8224 194.025Z" fill="#F0F0F0"/>
<path d="M57.1491 175.419C52.7917 180.487 50.1543 186.79 49.6113 193.431C49.4689 194.858 49.554 196.299 49.8637 197.7C50.2097 199.056 50.9152 200.294 51.9067 201.287C52.8125 202.232 53.8492 203.094 54.5078 204.241C54.8362 204.832 55.0348 205.487 55.0906 206.16C55.1463 206.833 55.0581 207.511 54.8316 208.148C54.3087 209.75 53.237 211.07 52.1438 212.325C50.93 213.719 49.6469 215.147 49.1586 216.969C49.0994 217.19 48.7576 217.086 48.8167 216.866C49.6664 213.695 52.7075 211.837 54.1133 208.967C54.7692 207.628 55.0225 206.085 54.3484 204.701C53.7588 203.492 52.6905 202.602 51.7651 201.653C50.7835 200.698 50.0525 199.52 49.6358 198.22C49.2552 196.839 49.1143 195.403 49.2189 193.975C49.4029 190.757 50.0956 187.587 51.2717 184.582C52.5949 181.145 54.5007 177.957 56.9067 175.158C57.0556 174.985 57.2971 175.247 57.1491 175.419V175.419Z" fill="white"/>
<path d="M49.6593 191.282C48.5491 191.04 47.5615 190.415 46.873 189.517C46.1845 188.62 45.8399 187.508 45.9008 186.382C45.9038 186.336 45.9246 186.293 45.9588 186.262C45.993 186.231 46.038 186.215 46.0842 186.216C46.1305 186.217 46.1745 186.236 46.2069 186.269C46.2393 186.302 46.2577 186.346 46.2582 186.392C46.1996 187.441 46.5207 188.476 47.1635 189.31C47.8063 190.145 48.7286 190.724 49.7638 190.943C49.9887 190.991 49.8829 191.33 49.6593 191.282V191.282Z" fill="white"/>
<path d="M51.3839 200.869C53.3519 199.643 54.7819 197.725 55.3889 195.499C55.4489 195.279 55.7906 195.383 55.7307 195.603C55.0948 197.918 53.6025 199.91 51.5517 201.182C51.3562 201.303 51.1894 200.989 51.3839 200.869H51.3839Z" fill="white"/>
<path d="M52.934 181.473C53.3439 181.656 53.7931 181.734 54.2412 181.702C54.6892 181.669 55.1221 181.527 55.501 181.287C55.6949 181.163 55.8614 181.478 55.6688 181.6C55.249 181.863 54.7707 182.02 54.2757 182.057C53.7808 182.094 53.2843 182.01 52.8295 181.813C52.7851 181.797 52.7481 181.766 52.726 181.725C52.704 181.684 52.6985 181.636 52.7108 181.591C52.7249 181.546 52.7562 181.509 52.798 181.487C52.8398 181.465 52.8886 181.46 52.934 181.473V181.473Z" fill="white"/>
<path d="M80.781 189.016C80.6622 189.097 80.5433 189.177 80.4243 189.261C78.8319 190.351 77.3313 191.568 75.9374 192.9C75.828 193.001 75.7187 193.106 75.6124 193.21C72.2887 196.454 69.6007 200.282 67.6851 204.499C66.9244 206.178 66.2934 207.912 65.7978 209.686C65.1134 212.136 64.5678 214.847 63.1496 216.87C63.004 217.083 62.8453 217.286 62.6744 217.479L49.4546 217.772C49.4242 217.757 49.3938 217.746 49.3633 217.732L48.836 217.767C48.8551 217.674 48.8769 217.578 48.8961 217.485C48.9069 217.43 48.9208 217.376 48.9316 217.322C48.9398 217.286 48.9481 217.25 48.9534 217.217C48.9561 217.205 48.9589 217.193 48.9617 217.184C48.967 217.151 48.9754 217.12 48.9808 217.09C49.1014 216.552 49.2261 216.013 49.3548 215.474C49.3548 215.471 49.3548 215.471 49.3577 215.468C50.349 211.364 51.6942 207.306 53.6172 203.579C53.6751 203.467 53.7328 203.352 53.7967 203.24C54.6729 201.565 55.6856 199.964 56.8246 198.453C57.451 197.628 58.1191 196.834 58.8263 196.076C60.6574 194.12 62.7872 192.462 65.1375 191.162C69.8231 188.573 75.291 187.5 80.3923 188.905C80.5228 188.941 80.6505 188.977 80.781 189.016Z" fill="#F0F0F0"/>
<path d="M80.755 189.184C74.2012 190.627 68.2722 194.083 63.8101 199.061C62.8304 200.115 62.0243 201.317 61.4215 202.621C60.8756 203.91 60.6875 205.32 60.8766 206.706C61.0269 208.001 61.3316 209.309 61.162 210.618C61.0651 211.286 60.8269 211.927 60.4629 212.498C60.099 213.069 59.6175 213.558 59.0501 213.931C57.6607 214.898 56.0042 215.312 54.37 215.66C52.5556 216.047 50.6648 216.421 49.1694 217.584C48.9882 217.725 48.7784 217.438 48.9593 217.297C51.5612 215.273 55.1162 215.607 57.9796 214.156C59.3158 213.479 60.4543 212.398 60.7552 210.89C61.0184 209.572 60.7052 208.223 60.5417 206.913C60.3372 205.564 60.4686 204.186 60.9245 202.899C61.4584 201.569 62.2166 200.339 63.1664 199.261C65.2658 196.801 67.7419 194.684 70.504 192.987C73.6454 191.034 77.1005 189.628 80.7197 188.83C80.9437 188.781 80.9776 189.135 80.755 189.184H80.755Z" fill="white"/>
<path d="M65.1518 197.374C64.412 196.517 64.0029 195.428 63.9977 194.3C63.9925 193.172 64.3915 192.079 65.1234 191.215C65.2721 191.041 65.5518 191.262 65.4028 191.437C64.7198 192.239 64.3482 193.258 64.3552 194.308C64.3622 195.359 64.7473 196.372 65.4411 197.165C65.5916 197.338 65.3015 197.545 65.1518 197.374Z" fill="white"/>
<path d="M60.7133 206.059C63.0284 206.256 65.3332 205.579 67.1682 204.165C67.3499 204.024 67.5597 204.312 67.3782 204.452C65.4659 205.92 63.066 206.619 60.6573 206.409C60.4277 206.389 60.485 206.039 60.7133 206.059V206.059Z" fill="white"/>
<path d="M73.7168 191.499C73.9335 191.889 74.2446 192.22 74.622 192.462C74.9995 192.704 75.4316 192.849 75.8794 192.884C76.1091 192.901 76.0516 193.251 75.8234 193.234C75.3288 193.193 74.8518 193.033 74.4342 192.766C74.0165 192.5 73.6709 192.137 73.4275 191.707C73.4012 191.669 73.3906 191.622 73.398 191.576C73.4053 191.53 73.4301 191.488 73.4672 191.46C73.5056 191.432 73.5534 191.421 73.6001 191.428C73.6469 191.436 73.6888 191.461 73.7168 191.499V191.499Z" fill="white"/>
<path d="M145.708 53.0103L74.5443 46.0632C73.7199 45.9783 72.9232 45.7201 72.2071 45.306C71.4683 44.8793 70.8134 44.3234 70.2742 43.6652C69.1149 42.2581 68.4789 40.498 68.4731 38.6804C68.4724 38.2377 68.5121 37.7959 68.5917 37.3603C68.6679 36.943 68.7843 36.534 68.9395 36.1389C69.0897 35.7567 69.2789 35.3907 69.5043 35.0467C69.7259 34.7087 69.9838 34.3955 70.2733 34.1125C70.5549 33.8368 70.867 33.5936 71.2037 33.3876C71.8591 32.9866 72.6 32.7434 73.3671 32.6777C73.7592 32.6443 74.1538 32.6543 74.5437 32.7076L145.708 42.2615C146.251 42.3415 146.766 42.5554 147.204 42.8834C147.685 43.2411 148.095 43.6827 148.416 44.1864C148.774 44.7414 149.047 45.3453 149.228 45.9791C149.426 46.6616 149.526 47.3682 149.525 48.0783C149.526 48.4243 149.501 48.7699 149.453 49.1125C149.407 49.439 149.335 49.7615 149.24 50.0772C149.149 50.3778 149.033 50.6703 148.893 50.9515C148.759 51.2201 148.599 51.4755 148.417 51.7142C148.246 51.9379 148.051 52.1424 147.836 52.3241C147.636 52.4924 147.416 52.6352 147.18 52.7493C146.724 52.9705 146.214 53.0608 145.708 53.01L145.708 53.0103Z" fill="#E4E4E4"/>
<path d="M114.078 49.9227L74.5443 46.0632C73.7199 45.9783 72.9232 45.7201 72.2071 45.306C71.4683 44.8793 70.8134 44.3234 70.2742 43.6652C69.1149 42.2581 68.4789 40.498 68.4731 38.6804C68.4724 38.2377 68.5121 37.7959 68.5917 37.3603C68.6679 36.943 68.7843 36.534 68.9395 36.1389C69.0897 35.7567 69.2789 35.3907 69.5043 35.0467C69.7259 34.7087 69.9838 34.3955 70.2733 34.1125C70.5549 33.8368 70.867 33.5936 71.2037 33.3876C71.8591 32.9865 72.6 32.7434 73.3671 32.6776C73.7592 32.6443 74.1538 32.6543 74.5437 32.7076L114.077 38.016L114.078 49.9227Z" fill="#638CFF"/>
<path d="M113.977 50.7997C113.794 50.7808 113.618 50.7192 113.464 50.6201C113.301 50.5159 113.159 50.3826 113.046 50.2269C112.922 50.0588 112.827 49.8721 112.762 49.6739C112.693 49.4629 112.658 49.2424 112.658 49.0206V38.587C112.657 38.3731 112.692 38.1605 112.762 37.9582C112.824 37.7793 112.92 37.6141 113.046 37.4717C113.16 37.3406 113.304 37.2381 113.465 37.1722C113.628 37.1082 113.805 37.0875 113.978 37.1124C114.161 37.1392 114.336 37.2074 114.488 37.3118C114.65 37.4228 114.79 37.5618 114.902 37.722C115.024 37.8932 115.119 38.0821 115.182 38.2819C115.25 38.4926 115.285 38.7125 115.285 38.9337V49.2832C115.286 49.497 115.252 49.7095 115.182 49.9119C115.121 50.0927 115.026 50.2605 114.902 50.4066C114.789 50.5406 114.647 50.6476 114.487 50.7195C114.327 50.7894 114.151 50.817 113.977 50.7997Z" fill="#3F3D56"/>
<path d="M50.7368 42.2354C50.6664 42.2283 50.5965 42.2164 50.5277 42.1998C50.4573 42.1828 50.388 42.1612 50.3205 42.1351C50.251 42.1084 50.1832 42.0773 50.1177 42.042C50.0499 42.0055 49.9844 41.9649 49.9216 41.9204C49.5419 41.6519 49.2716 41.2573 49.1596 40.8081C49.1224 40.6587 49.1037 40.5054 49.1037 40.3515V32.5169C49.1032 32.3675 49.1219 32.2187 49.1596 32.074C49.1949 31.9375 49.2492 31.8065 49.321 31.6848C49.4617 31.447 49.671 31.2567 49.9219 31.1383C50.048 31.0785 50.1823 31.0374 50.3205 31.0165C50.4584 30.9958 50.5985 30.9946 50.7368 31.0129C50.8796 31.0319 51.0193 31.0696 51.1522 31.1249C51.2929 31.1834 51.4258 31.2588 51.548 31.3494L57.8527 35.9979C57.9654 36.0811 58.0686 36.1763 58.1605 36.2818C58.3424 36.4906 58.4773 36.7356 58.556 37.0004C58.5954 37.1332 58.6202 37.2698 58.6299 37.4079C58.6299 37.4189 58.6306 37.4299 58.632 37.4408C58.6334 37.4518 58.6334 37.4628 58.632 37.4738V37.5399C58.6325 37.6858 58.6146 37.8311 58.5789 37.9726C58.5451 38.1059 58.4933 38.2341 58.425 38.3537C58.3587 38.4697 58.2759 38.5756 58.1791 38.6681C58.0824 38.7611 57.9724 38.8394 57.8527 38.9005L51.5474 42.0866C51.4846 42.1183 51.4196 42.1454 51.3528 42.1678C51.287 42.1898 51.2197 42.2071 51.1513 42.2196C51.0832 42.2319 51.0142 42.2394 50.9449 42.242C50.8755 42.2446 50.8059 42.2424 50.7368 42.2354V42.2354Z" fill="#CACACA"/>
<path d="M145.722 87.1247L74.5657 88.4565C73.7599 88.4713 72.961 88.3054 72.2288 87.9712C71.4946 87.6338 70.837 87.1521 70.2959 86.5552C69.7274 85.9297 69.2812 85.2047 68.9802 84.4171C68.3334 82.7178 68.3334 80.8427 68.9802 79.1434C69.2813 78.3556 69.7274 77.6304 70.2959 77.0046C70.837 76.4072 71.4946 75.9249 72.2288 75.5869C72.9609 75.2522 73.7597 75.0858 74.5657 75.1L145.722 76.3764C146.252 76.3898 146.769 76.545 147.218 76.8256C147.697 77.1261 148.11 77.5207 148.43 77.9852C148.79 78.5045 149.064 79.0778 149.242 79.6832C149.637 81.0318 149.637 82.4643 149.242 83.8128C149.064 84.4185 148.79 84.9921 148.43 85.5117C148.11 85.9774 147.698 86.3733 147.218 86.675C146.769 86.9557 146.252 87.1111 145.722 87.1247V87.1247Z" fill="#E4E4E4"/>
<path d="M102.378 87.9361L74.5657 88.4565C73.7599 88.4713 72.961 88.3054 72.2288 87.9712C71.4946 87.6338 70.8371 87.1521 70.2959 86.5552C69.7274 85.9297 69.2812 85.2047 68.9802 84.4171C68.6575 83.575 68.4931 82.6813 68.4951 81.7804C68.4948 81.3331 68.5345 80.8867 68.6137 80.4464C68.691 80.0164 68.8074 79.5942 68.9615 79.185C69.1131 78.7825 69.3022 78.3948 69.5263 78.0271C69.7488 77.6622 70.0062 77.3193 70.295 77.0034C70.5761 76.6949 70.8878 76.4154 71.2254 76.1689C71.55 75.9324 71.8988 75.7307 72.2662 75.5671C72.9886 75.245 73.7739 75.0855 74.5657 75.1L102.378 75.5988V87.9361Z" fill="#638CFF"/>
<path d="M102.702 88.7167C102.512 88.7206 102.324 88.6784 102.155 88.594C101.982 88.507 101.829 88.3852 101.706 88.2364C101.573 88.0763 101.47 87.8937 101.402 87.6975C101.327 87.4843 101.29 87.2602 101.29 87.0346V76.2375C101.29 76.0117 101.327 75.7874 101.402 75.574C101.47 75.3778 101.573 75.1952 101.706 75.035C101.829 74.8867 101.982 74.7654 102.155 74.6787C102.324 74.5943 102.512 74.5521 102.702 74.556C102.894 74.5606 103.081 74.6105 103.248 74.7015C103.42 74.7953 103.572 74.9222 103.693 75.0749C103.824 75.2382 103.926 75.4228 103.993 75.6204C104.066 75.8336 104.103 76.0573 104.103 76.2824V86.9897C104.103 87.2148 104.066 87.4385 103.993 87.6517C103.926 87.8494 103.824 88.0341 103.693 88.1975C103.572 88.3504 103.42 88.4776 103.248 88.5715C103.081 88.6624 102.894 88.7122 102.702 88.7167V88.7167Z" fill="#3F3D56"/>
<path d="M50.7609 87.3984C50.6204 87.4004 50.4803 87.383 50.3446 87.3466C50.2755 87.3281 50.2077 87.3049 50.1418 87.2771C50.0744 87.2486 50.009 87.2156 49.9461 87.1783C49.82 87.1041 49.7045 87.0135 49.6027 86.9088C49.502 86.8047 49.4155 86.688 49.3454 86.5615C49.2743 86.4332 49.22 86.2963 49.184 86.1543C49.1466 86.0075 49.1279 85.8566 49.1282 85.7052V77.8705C49.1279 77.7191 49.1467 77.5682 49.184 77.4214C49.2201 77.2796 49.2744 77.143 49.3454 77.0148C49.4863 76.7595 49.6939 76.5465 49.9464 76.3983C50.0707 76.3239 50.2048 76.2667 50.3449 76.2285C50.6177 76.1552 50.9057 76.1593 51.1763 76.2402C51.3156 76.2819 51.4487 76.3421 51.5719 76.419L57.8772 80.3336L57.8998 80.3479L57.9224 80.3626L57.9447 80.3776L57.9668 80.3929C58.068 80.4655 58.1604 80.5495 58.2422 80.6432C58.3239 80.7365 58.3947 80.8386 58.4534 80.9477C58.5126 81.0582 58.5594 81.1747 58.5931 81.2953C58.6277 81.4193 58.649 81.5465 58.6564 81.675V81.7843C58.6567 81.9321 58.6388 82.0794 58.6033 82.2229C58.5689 82.3617 58.5172 82.4956 58.4495 82.6217C58.3827 82.746 58.3002 82.8612 58.2039 82.9646C58.1066 83.0684 57.9959 83.159 57.8747 83.234L51.5719 87.1556C51.5095 87.1944 51.4446 87.2291 51.3776 87.2594C51.3122 87.289 51.2449 87.3141 51.176 87.3346C51.1084 87.3548 51.0395 87.3703 50.9697 87.381C50.9006 87.3916 50.8308 87.3974 50.7609 87.3984V87.3984Z" fill="#CACACA"/>
<path d="M145.708 121.125L74.5443 130.709C73.7712 130.819 72.9829 130.75 72.2416 130.505C71.5004 130.261 70.8266 129.849 70.2738 129.301C69.7018 128.737 69.2538 128.061 68.9579 127.316C68.6321 126.494 68.4675 125.619 68.4731 124.736C68.4789 122.919 69.1149 121.158 70.2741 119.751C70.8134 119.092 71.4683 118.536 72.2071 118.109C72.9231 117.695 73.7198 117.436 74.5443 117.351L145.708 110.376C146.223 110.325 146.742 110.42 147.204 110.651C147.682 110.895 148.096 111.244 148.416 111.672C148.78 112.156 149.055 112.699 149.228 113.276C149.429 113.935 149.529 114.619 149.525 115.307C149.526 116.017 149.426 116.723 149.228 117.406C149.047 118.04 148.774 118.644 148.416 119.199C148.095 119.703 147.685 120.145 147.204 120.503C146.766 120.831 146.251 121.045 145.708 121.125V121.125Z" fill="#E4E4E4"/>
<path d="M134.519 122.632L74.5443 130.708C73.7712 130.819 72.9829 130.749 72.2416 130.505C71.5004 130.261 70.8267 129.849 70.2739 129.301C69.7018 128.736 69.2538 128.06 68.9579 127.316C68.6323 126.495 68.4677 125.619 68.4731 124.737C68.4732 124.286 68.5129 123.835 68.5916 123.39C68.8272 122.053 69.4064 120.799 70.2733 119.75C70.5544 119.409 70.8658 119.094 71.2037 118.809C71.5266 118.535 71.875 118.293 72.2442 118.085C72.6008 117.885 72.9769 117.72 73.3668 117.595C73.7491 117.473 74.1435 117.391 74.5434 117.351L134.519 111.473V122.632Z" fill="#638CFF"/>
<path d="M50.7365 132.411C50.6672 132.42 50.5973 132.424 50.5274 132.424C50.4581 132.423 50.389 132.418 50.3205 132.407C50.1823 132.387 50.048 132.345 49.9219 132.286C49.6708 132.167 49.4615 131.976 49.321 131.738C49.2492 131.616 49.1949 131.485 49.1595 131.349C49.1221 131.205 49.1033 131.056 49.1037 130.908V123.072C49.1037 122.918 49.1225 122.765 49.1595 122.616C49.2717 122.167 49.5421 121.772 49.9219 121.503C50.0452 121.416 50.1791 121.344 50.3205 121.289C50.4541 121.237 50.5941 121.203 50.7368 121.188C50.8753 121.174 51.0152 121.179 51.1522 121.204C51.2897 121.229 51.4229 121.274 51.5474 121.337L57.8527 124.52L57.8757 124.532L57.8983 124.544L57.9206 124.557L57.9426 124.57C58.0383 124.627 58.1264 124.696 58.2051 124.775C58.2835 124.854 58.3522 124.942 58.4096 125.036C58.4684 125.133 58.5158 125.237 58.5511 125.344C58.588 125.457 58.6126 125.573 58.6247 125.691C58.6264 125.706 58.6278 125.722 58.629 125.738C58.6302 125.753 58.6312 125.769 58.632 125.785C58.632 125.801 58.6326 125.817 58.6338 125.832C58.635 125.849 58.635 125.865 58.6338 125.881C58.6338 126.031 58.616 126.18 58.5807 126.326C58.5115 126.615 58.3759 126.885 58.1846 127.114C58.0866 127.23 57.9752 127.333 57.8527 127.423L51.5474 132.074C51.4852 132.12 51.4202 132.162 51.3528 132.2C51.2878 132.237 51.2205 132.27 51.1513 132.299C51.0841 132.327 51.0152 132.35 50.9449 132.369C50.8765 132.388 50.8068 132.402 50.7365 132.411V132.411Z" fill="#CACACA"/>
<path d="M134.086 114.616C134.525 114.553 134.972 114.587 135.397 114.714C135.821 114.842 136.213 115.06 136.543 115.354C136.873 115.647 137.135 116.009 137.309 116.414C137.483 116.819 137.565 117.257 137.551 117.697L147.612 121.54L143.053 124.773L134.198 120.627C133.455 120.553 132.765 120.212 132.259 119.667C131.753 119.122 131.466 118.412 131.452 117.671C131.438 116.93 131.698 116.21 132.184 115.647C132.669 115.084 133.346 114.717 134.086 114.616H134.086Z" fill="#FFB6B6"/>
<path d="M172.288 112.729L173.991 115.801C173.579 117.749 172.516 119.501 170.974 120.774C168.368 122.955 154.742 131.079 154.742 131.079L137.54 122.508L140.549 118.539L154.054 123.031L161.673 115.891L172.288 112.729Z" fill="#3F3D56"/>
<path d="M173.851 160.891L172.073 161.223L182.798 217.718L184.577 217.385L173.851 160.891Z" fill="#CACACA"/>
<path d="M156.146 217.385L157.925 217.718L168.651 161.223L166.872 160.891L156.146 217.385Z" fill="#CACACA"/>
<path d="M169.123 163.552C176.538 163.552 182.549 161.608 182.549 159.211C182.549 156.813 176.538 154.869 169.123 154.869C161.709 154.869 155.698 156.813 155.698 159.211C155.698 161.608 161.709 163.552 169.123 163.552Z" fill="#CACACA"/>
<path d="M140.609 214.159L136.911 214.159L135.151 200L140.61 200L140.609 214.159Z" fill="#FFB6B6"/>
<path d="M141.552 217.718L129.626 217.717V217.567C129.627 216.346 130.116 215.174 130.986 214.31C131.857 213.446 133.037 212.961 134.268 212.961H134.269L141.553 212.961L141.552 217.718Z" fill="#2F2E41"/>
<path d="M158.564 194.894L155.333 196.681L146.85 185.165L151.618 182.527L158.564 194.894Z" fill="#FFB6B6"/>
<path d="M161.134 197.546L150.717 203.309L150.643 203.178C150.044 202.111 149.896 200.851 150.233 199.676C150.569 198.501 151.362 197.506 152.437 196.911L152.438 196.911L158.8 193.391L161.134 197.546Z" fill="#2F2E41"/>
<path d="M179.572 148.596C179.572 148.596 181.365 154.11 170.362 161.084L156.191 175.099L141.466 210.056L132.725 206.166L146.168 170.553L154.029 156.892L154.257 149.48L156.191 144.254L170.219 139.314L179.572 148.596Z" fill="#2F2E41"/>
<path d="M150.799 194.665L136.174 172.78C135.502 171.773 135.205 170.565 135.333 169.364C135.46 168.163 136.006 167.044 136.875 166.199L151.684 151.822L154.195 149.33H159.813L157.179 158.977L148.038 169.26L158.605 187.818L150.799 194.665Z" fill="#2F2E41"/>
<path d="M161.549 118.611L165.956 112.352L176.026 111.547C176.026 111.547 184.683 119.642 183.108 130.302C181.533 140.961 180.024 151.44 180.024 151.44C180.024 151.44 164.336 140.362 156.191 144.254L161.549 118.611Z" fill="#3F3D56"/>
<path d="M158.557 151.268C158.635 150.835 158.808 150.424 159.063 150.064C159.319 149.704 159.65 149.404 160.035 149.185C160.42 148.967 160.849 148.834 161.291 148.798C161.733 148.761 162.177 148.821 162.593 148.974L169.436 140.705L171.092 146.016L164.341 153.054C164.037 153.731 163.493 154.273 162.812 154.579C162.132 154.884 161.362 154.931 160.649 154.711C159.936 154.491 159.33 154.019 158.944 153.384C158.558 152.75 158.42 151.997 158.557 151.268V151.268Z" fill="#FFB6B6"/>
<path d="M167.17 150.731L164.157 146.411L172.714 135.087L168.306 125.712L168.627 114.56L172.27 113.892L172.315 113.915C174.086 114.927 175.455 116.509 176.194 118.4C177.103 120.654 179.132 129.119 180.26 133.963C180.482 134.902 180.457 135.881 180.19 136.808C179.922 137.735 179.419 138.579 178.73 139.258L167.17 150.731Z" fill="#3F3D56"/>
<path d="M174.853 106.873C176.814 103.599 175.729 99.3668 172.43 97.4205C169.131 95.4742 164.867 96.5507 162.906 99.8248C160.945 103.099 162.029 107.331 165.328 109.277C168.627 111.224 172.891 110.147 174.853 106.873Z" fill="#FFB6B6"/>
<path d="M173.322 100.873C173.248 101.874 174.195 105.567 174.195 105.567C174.888 104.409 173.799 108.257 173.799 108.257C185.182 100.382 176.188 92.4708 172.669 93.174C172.743 92.1726 169.873 92.5693 169.873 92.5693C168.78 90.8795 166.384 93.1226 166.384 93.1226L166.846 92.3506C164.986 92.8202 163.147 98.5266 163.147 98.5266C163.778 100.988 173.395 99.8711 173.322 100.873Z" fill="#2F2E41"/>
<path d="M134.252 123.381C134.099 123.403 133.944 123.382 133.802 123.321C133.659 123.257 133.532 123.16 133.434 123.039C133.322 122.903 133.237 122.747 133.183 122.58C133.122 122.389 133.091 122.19 133.093 121.989V112.209C133.092 112.002 133.123 111.796 133.183 111.597C133.239 111.413 133.324 111.239 133.434 111.08C133.532 110.936 133.657 110.811 133.802 110.713C133.936 110.622 134.091 110.566 134.252 110.549C134.406 110.534 134.561 110.561 134.7 110.627C134.843 110.697 134.968 110.798 135.066 110.923C135.175 111.062 135.259 111.22 135.312 111.389C135.373 111.579 135.403 111.778 135.403 111.978V121.684C135.402 121.891 135.372 122.097 135.312 122.295C135.257 122.48 135.174 122.657 135.066 122.818C134.968 122.965 134.844 123.094 134.7 123.198C134.568 123.294 134.414 123.357 134.252 123.381V123.381Z" fill="#3F3D56"/>
<path d="M227.641 218H32.3592C32.2641 218 32.173 217.962 32.1059 217.895C32.0387 217.828 32.0011 217.738 32.0011 217.644C32.0011 217.549 32.0387 217.459 32.1059 217.392C32.173 217.325 32.2641 217.287 32.3592 217.287H227.641C227.736 217.287 227.827 217.325 227.895 217.391C227.962 217.458 228 217.549 228 217.644C228 217.738 227.962 217.829 227.895 217.896C227.827 217.962 227.736 218 227.641 218Z" fill="#CACACA"/>
</g>
<defs>
<clipPath id="clip0">
<rect width="196" height="187" fill="white" transform="translate(32 31)"/>
</clipPath>
</defs>
</svg>
