<svg width="260" height="250" viewBox="0 0 260 250" fill="none" xmlns="http://www.w3.org/2000/svg">
<path d="M78.3957 110.619C69.816 101.804 66.1923 92.609 68.1919 84.7265C70.7581 74.6109 82.1582 67.6169 99.4691 65.5377L99.5331 66.1179C82.4631 68.168 71.2369 75.0051 68.7329 84.8759C66.7869 92.5471 70.3579 101.542 78.7883 110.203L78.3957 110.619Z" fill="#F0F0F0"/>
<path d="M161.176 141.906C150.468 141.906 138.831 140.246 127.273 137.053C112.98 133.104 99.8751 127.143 89.3746 119.816L89.6856 119.33C100.136 126.623 113.183 132.556 127.416 136.488C140.279 140.042 153.239 141.688 164.889 141.254L164.909 141.837C163.679 141.884 162.434 141.907 161.176 141.906Z" fill="#F0F0F0"/>
<path d="M185.741 138.234L185.562 137.681C195.139 134.302 201.129 128.858 202.884 121.939C205.116 113.142 200.268 102.935 189.233 93.1958C178.143 83.4076 162.15 75.2858 144.201 70.3269L144.344 69.7623C162.372 74.743 178.442 82.9068 189.595 92.75C200.803 102.642 205.715 113.062 203.425 122.088C201.619 129.206 195.504 134.789 185.741 138.234Z" fill="#F0F0F0"/>
<path d="M97.8031 142.15C76.7625 132.412 60.5491 119.778 52.1499 106.574L52.616 106.251C60.9572 119.363 77.0855 131.923 98.0299 141.617L97.8031 142.15Z" fill="#F0F0F0"/>
<path d="M171.78 159.021C169.61 159.021 167.403 158.971 165.158 158.87L165.182 158.286C181.931 159.043 196.709 156.951 207.922 152.236L208.131 152.778C198.35 156.891 185.884 159.021 171.78 159.021Z" fill="#F0F0F0"/>
<path d="M145.572 70.3712C142.095 69.1896 138.518 68.0894 134.94 67.1011C114.356 61.4141 94.1207 59.3949 76.4222 61.263L76.3659 60.6819C94.1304 58.8077 114.435 60.8317 135.084 66.5365C138.671 67.5277 142.258 68.631 145.745 69.816L145.572 70.3712Z" fill="#F0F0F0"/>
<path d="M65.2459 111.495C56.6661 102.68 53.0425 93.4849 55.0421 85.6024C57.6082 75.4868 69.0083 68.4928 86.3193 66.4136L86.3832 66.9938C69.3132 69.0439 58.0871 75.881 55.5831 85.7518C53.637 93.423 57.2081 102.418 65.6385 111.079L65.2459 111.495Z" fill="#F0F0F0"/>
<path d="M148.026 142.782C137.318 142.782 125.681 141.122 114.123 137.928C99.8305 133.98 86.7253 128.019 76.2248 120.692L76.5357 120.206C86.9857 127.499 100.033 133.432 114.267 137.364C127.13 140.918 140.089 142.564 151.739 142.13L151.759 142.713C150.529 142.759 149.284 142.782 148.026 142.782Z" fill="#F0F0F0"/>
<path d="M172.591 139.11L172.412 138.557C181.989 135.178 187.979 129.734 189.734 122.815C191.966 114.018 187.118 103.81 176.084 94.0717C164.993 84.2835 149 76.1617 131.051 71.2028L131.194 70.6383C149.222 75.619 165.293 83.7828 176.445 93.6259C187.653 103.518 192.565 113.938 190.275 122.964C188.469 130.082 182.354 135.665 172.591 139.11Z" fill="#F0F0F0"/>
<path d="M84.6533 143.026C63.6127 133.288 47.3993 120.653 39 107.45L39.4662 107.127C47.8074 120.239 63.9356 132.799 84.8801 142.493L84.6533 143.026Z" fill="#F0F0F0"/>
<path d="M158.63 159.897C156.46 159.897 154.253 159.847 152.008 159.746L152.033 159.162C168.782 159.919 183.56 157.827 194.772 153.112L194.981 153.654C185.2 157.767 172.734 159.897 158.63 159.897Z" fill="#F0F0F0"/>
<path d="M132.422 71.2471C128.945 70.0655 125.368 68.9653 121.791 67.977C101.206 62.29 80.9709 60.2709 63.2723 62.1389L63.216 61.5578C80.9806 59.6836 101.285 61.7077 121.934 67.4125C125.521 68.4036 129.108 69.5069 132.596 70.6919L132.422 71.2471Z" fill="#F0F0F0"/>
<path d="M149.902 119.5L154.658 118.916L156.337 134.099L160.623 155.066C161.219 155.369 161.706 155.864 162.01 156.479C162.314 157.094 162.42 157.795 162.312 158.478C162.203 159.16 161.886 159.788 161.409 160.268C160.931 160.748 160.317 161.053 159.659 161.14C159.001 161.226 158.334 161.088 157.757 160.747C157.181 160.406 156.725 159.879 156.458 159.246C156.191 158.612 156.127 157.906 156.276 157.231C156.425 156.557 156.779 155.951 157.285 155.503L152.98 143.151L149.902 119.5Z" fill="#FFB6B6"/>
<path d="M142.993 227.74H146.911L148.776 211.966H142.992L142.993 227.74Z" fill="#FFB6B6"/>
<path d="M141.993 231.704H154.629V231.537C154.629 230.176 154.111 228.87 153.188 227.908C152.266 226.945 151.015 226.405 149.711 226.405H141.993V231.704Z" fill="#2F2E41"/>
<path d="M112.919 225.51L116.766 226.285L121.463 211.167L115.784 210.022L112.919 225.51Z" fill="#FFB6B6"/>
<path d="M111.218 229.204L123.625 231.705L123.655 231.541C123.902 230.204 123.63 228.82 122.9 227.692C122.169 226.565 121.039 225.786 119.759 225.528L112.181 224.001L111.218 229.204Z" fill="#2F2E41"/>
<path d="M149.137 94.6201L146.86 99.179L129.807 95.254L131.675 86.415C133.154 79.4186 139.082 74.366 145.786 75.909C152.49 77.4521 155.618 84.2903 154.139 91.2866L151.391 100.221L148.611 99.5811L149.137 94.6201Z" fill="#2F2E41"/>
<path d="M155.218 144.903C155.218 144.903 156.897 153.662 154.658 166.509C152.42 179.356 151.861 184.903 151.861 184.903C151.861 184.903 153.539 186.947 152.42 188.115C151.301 189.283 152.42 191.619 152.42 191.619L149.902 219.941L141.229 218.481L142.348 191.911C142.348 191.911 141.229 189.575 141.788 188.991C142.348 188.407 141.229 184.903 141.229 184.903L139.83 157.166L131.157 187.531C131.157 187.531 131.996 188.699 131.157 189.575C130.317 190.451 128.639 194.831 128.639 194.831L123.043 215.269L114.09 213.517L119.126 190.159C119.126 190.159 118.566 188.699 119.406 187.823C119.651 187.555 119.829 187.229 119.927 186.873C120.024 186.517 120.037 186.142 119.965 185.779C119.965 185.779 119.126 184.903 120.245 183.736C121.364 182.568 121.924 177.896 121.924 177.896C121.924 177.896 122.763 146.655 125.561 144.903C128.359 143.151 155.218 144.903 155.218 144.903Z" fill="#2F2E41"/>
<path d="M142.567 96.5915C146.894 96.5915 150.401 92.9313 150.401 88.4162C150.401 83.901 146.894 80.2408 142.567 80.2408C138.24 80.2408 134.733 83.901 134.733 88.4162C134.733 92.9313 138.24 96.5915 142.567 96.5915Z" fill="#FFB6B6"/>
<path d="M131.527 98.8812C131.527 98.8812 125.84 98.186 124.162 99.9379L125.84 135.267C125.84 135.267 124.721 136.143 125.281 138.187C125.606 139.528 125.606 140.933 125.281 142.275C125.281 142.275 123.602 144.318 124.442 145.194C125.281 146.07 155.498 145.486 155.498 145.486C155.498 145.486 156.617 143.442 154.938 142.275C153.259 141.107 154.099 137.895 154.099 137.895C154.099 137.895 154.658 137.019 153.259 135.559C151.86 134.099 150.741 122.128 150.741 122.128L154.378 107.529C154.378 107.529 150.717 103.217 146.532 102.891L131.527 98.8812Z" fill="#E6E6E6"/>
<path d="M150.043 107.73L154.378 107.529C154.378 107.529 156.896 112.785 157.176 117.456L158.717 134.884L148.782 136.435L150.043 107.73Z" fill="#E6E6E6"/>
<path d="M149.279 88.8217L152.189 84.9145C152.36 84.0919 152.213 83.2318 151.779 82.5223C151.344 81.8128 150.659 81.3114 149.871 81.1279L138.878 78.5973C138.09 78.4182 137.266 78.5721 136.586 79.0252C135.906 79.4783 135.425 80.1938 135.249 81.0154L135.243 81.0446L136.03 85.7627L136.169 85.737C142.991 84.4675 144.935 84.9142 149.167 88.7228L149.279 88.8217Z" fill="#2F2E41"/>
<path d="M120 151.25L120.525 128.26L121.084 111.909L127.799 112.785L124.193 151.865C124.572 152.362 124.802 152.965 124.852 153.598C124.903 154.231 124.773 154.865 124.478 155.421C124.184 155.977 123.737 156.429 123.197 156.72C122.656 157.011 122.044 157.129 121.439 157.057C120.834 156.986 120.263 156.729 119.799 156.319C119.334 155.909 118.996 155.364 118.828 154.753C118.66 154.143 118.669 153.494 118.854 152.889C119.039 152.284 119.392 151.749 119.868 151.354C119.911 151.318 119.955 151.283 120 151.25V151.25Z" fill="#FFB6B6"/>
<path d="M129.06 100.43L124.162 99.9376C124.162 99.9376 123.322 99.9376 122.483 102.857C121.644 105.777 117.029 136.636 117.029 136.636L127.24 137.603L129.06 100.43Z" fill="#E6E6E6"/>
<path d="M68.6928 64.583C75.7231 64.583 81.4224 58.6353 81.4224 51.2986C81.4224 43.9618 75.7231 38.0142 68.6928 38.0142C61.6624 38.0142 55.9632 43.9618 55.9632 51.2986C55.9632 58.6353 61.6624 64.583 68.6928 64.583Z" fill="#6C63FF"/>
<path d="M71.6786 59.4626C69.1056 59.4626 66.5903 58.6664 64.4509 57.1746C62.3116 55.6828 60.6441 53.5625 59.6595 51.0817C58.6748 48.6009 58.4172 45.8712 58.9191 43.2376C59.4211 40.6041 60.6601 38.185 62.4795 36.2863C64.2989 34.3876 66.617 33.0946 69.1406 32.5707C71.6641 32.0469 74.2799 32.3158 76.6571 33.3433C79.0342 34.3709 81.066 36.111 82.4955 38.3436C83.925 40.5763 84.688 43.2011 84.688 45.8863C84.6841 49.4857 83.3122 52.9365 80.8733 55.4817C78.4344 58.0269 75.1277 59.4585 71.6786 59.4626V59.4626ZM71.6786 32.8938C69.2162 32.8938 66.8092 33.6558 64.7618 35.0834C62.7145 36.5111 61.1187 38.5402 60.1764 40.9143C59.2341 43.2883 58.9876 45.9007 59.468 48.4209C59.9483 50.9412 61.1341 53.2562 62.8752 55.0733C64.6163 56.8903 66.8347 58.1277 69.2497 58.629C71.6648 59.1303 74.168 58.873 76.4429 57.8897C78.7178 56.9063 80.6622 55.241 82.0302 53.1044C83.3982 50.9679 84.1284 48.4559 84.1284 45.8862C84.1247 42.4416 82.8118 39.1392 80.4778 36.7035C78.1438 34.2678 74.9793 32.8977 71.6786 32.8938Z" fill="#3F3D56"/>
<path d="M199.828 103.524C204.656 103.524 208.57 99.4396 208.57 94.4014C208.57 89.3632 204.656 85.2789 199.828 85.2789C195 85.2789 191.087 89.3632 191.087 94.4014C191.087 99.4396 195 103.524 199.828 103.524Z" fill="#6C63FF"/>
<path d="M201.879 100.099C200.094 100.099 198.35 99.5473 196.867 98.5128C195.383 97.4783 194.227 96.0079 193.544 94.2876C192.861 92.5674 192.683 90.6744 193.031 88.8482C193.379 87.0219 194.238 85.3444 195.5 84.0278C196.761 82.7111 198.369 81.8145 200.119 81.4512C201.869 81.0879 203.683 81.2744 205.331 81.9869C206.98 82.6995 208.388 83.9062 209.38 85.4544C210.371 87.0026 210.9 88.8228 210.9 90.6849C210.897 93.1809 209.946 95.5739 208.255 97.3388C206.564 99.1038 204.271 100.097 201.879 100.099ZM201.879 81.8543C200.205 81.8543 198.569 82.3722 197.178 83.3425C195.786 84.3128 194.701 85.6919 194.061 87.3055C193.421 88.9191 193.253 90.6946 193.58 92.4076C193.906 94.1206 194.712 95.694 195.895 96.929C197.079 98.164 198.586 99.005 200.228 99.3458C201.869 99.6865 203.571 99.5116 205.117 98.8433C206.663 98.1749 207.985 97.0431 208.914 95.5909C209.844 94.1387 210.341 92.4314 210.341 90.6849C210.338 88.3436 209.446 86.0991 207.859 84.4436C206.273 82.7881 204.122 81.8569 201.879 81.8543V81.8543Z" fill="#3F3D56"/>
<path d="M220.72 232H52.8499C52.7757 232 52.7045 231.969 52.652 231.914C52.5996 231.86 52.5701 231.785 52.5701 231.708C52.5701 231.631 52.5996 231.556 52.652 231.502C52.7045 231.447 52.7757 231.416 52.8499 231.416H220.72C220.794 231.416 220.866 231.447 220.918 231.502C220.971 231.556 221 231.631 221 231.708C221 231.785 220.971 231.86 220.918 231.914C220.866 231.969 220.794 232 220.72 232Z" fill="#CACACA"/>
<path d="M209.024 220.124C208.141 220.448 207.193 220.529 206.272 220.36C205.35 220.191 204.486 219.776 203.763 219.157C201.92 217.543 201.342 214.883 200.872 212.421L199.481 205.138L202.392 207.23C204.486 208.734 206.627 210.287 208.077 212.466C209.526 214.645 210.159 217.62 208.994 219.978" fill="#FD6584"/>
<path d="M208.575 229.449C208.941 226.663 209.318 223.841 209.061 221.025C208.833 218.525 208.101 216.082 206.613 214.08C205.823 213.019 204.862 212.11 203.772 211.393C203.488 211.206 203.227 211.676 203.51 211.862C205.395 213.106 206.852 214.941 207.673 217.105C208.58 219.511 208.725 222.134 208.568 224.69C208.474 226.236 208.274 227.771 208.072 229.305C208.056 229.374 208.066 229.448 208.1 229.51C208.134 229.572 208.189 229.618 208.254 229.639C208.32 229.658 208.391 229.648 208.451 229.613C208.511 229.577 208.555 229.519 208.574 229.449L208.575 229.449Z" fill="#F2F2F2"/>
<path d="M205.937 224.979C205.558 225.58 205.038 226.068 204.426 226.398C203.814 226.728 203.131 226.887 202.442 226.862C200.673 226.774 199.198 225.485 197.871 224.263L193.944 220.644L196.543 220.514C198.412 220.42 200.329 220.333 202.11 220.935C203.892 221.536 205.532 222.984 205.858 224.906" fill="#E6E6E6"/>
<path d="M209.61 231.051C207.848 227.794 205.8 224.173 202.144 223.016C201.128 222.696 200.062 222.581 199.004 222.678C198.67 222.707 198.754 223.244 199.088 223.214C200.861 223.06 202.631 223.549 204.099 224.598C205.513 225.602 206.613 226.997 207.544 228.477C208.114 229.382 208.625 230.328 209.136 231.272C209.298 231.573 209.775 231.356 209.61 231.051Z" fill="#F2F2F2"/>
<path d="M70.6153 223.916C71.251 224.193 71.9443 224.295 72.6284 224.211C73.3125 224.127 73.9644 223.861 74.5213 223.438C75.941 222.333 76.4731 220.404 76.9189 218.615L78.2357 213.325L76.0117 214.734C74.4122 215.747 72.776 216.794 71.6215 218.332C70.4669 219.87 69.8828 222.026 70.6437 223.811" fill="#E6E6E6"/>
<path d="M70.8235 231.094C70.5394 227.365 70.2969 223.169 72.7078 220.076C73.3788 219.217 74.201 218.499 75.1301 217.963C75.4223 217.792 75.641 218.286 75.3479 218.456C73.7955 219.364 72.5901 220.801 71.9347 222.528C71.301 224.185 71.1366 225.983 71.1577 227.754C71.1698 228.837 71.2533 229.92 71.3354 231C71.3624 231.345 70.8499 231.443 70.8235 231.094Z" fill="#F2F2F2"/>
<path d="M65.5417 138.768C72.4817 138.768 78.1077 132.897 78.1077 125.655C78.1077 118.412 72.4817 112.541 65.5417 112.541C58.6017 112.541 52.9758 118.412 52.9758 125.655C52.9758 132.897 58.6017 138.768 65.5417 138.768Z" fill="#E4E4E4"/>
<path d="M68.4892 133.718C65.9486 133.718 63.465 132.932 61.3525 131.459C59.2401 129.986 57.5936 127.892 56.6214 125.442C55.6492 122.993 55.3948 120.297 55.8904 117.697C56.3861 115.097 57.6096 112.708 59.4061 110.833C61.2026 108.958 63.4915 107.682 65.9833 107.164C68.4751 106.647 71.0579 106.913 73.4052 107.927C75.7524 108.942 77.7586 110.66 79.1701 112.865C80.5816 115.069 81.335 117.661 81.3349 120.312C81.3311 123.867 79.9765 127.274 77.5682 129.787C75.16 132.3 71.8949 133.714 68.4892 133.718V133.718ZM68.4892 107.491C66.0593 107.491 63.6839 108.243 61.6634 109.652C59.643 111.06 58.0683 113.063 57.1384 115.406C56.2085 117.749 55.9652 120.327 56.4392 122.814C56.9133 125.301 58.0835 127.585 59.8017 129.379C61.5199 131.172 63.7091 132.393 66.0924 132.887C68.4756 133.382 70.9459 133.128 73.1909 132.158C75.4359 131.187 77.3547 129.544 78.7048 127.436C80.0548 125.327 80.7754 122.848 80.7754 120.312C80.7717 116.913 79.4761 113.654 77.1728 111.25C74.8695 108.847 71.7466 107.495 68.4892 107.491V107.491Z" fill="#2F2E41"/>
<path d="M57.9556 80.0719C59.1918 80.0719 60.1939 79.0261 60.1939 77.7361C60.1939 76.446 59.1918 75.4003 57.9556 75.4003C56.7195 75.4003 55.7174 76.446 55.7174 77.7361C55.7174 79.0261 56.7195 80.0719 57.9556 80.0719Z" fill="#F2F2F2"/>
<path d="M158.947 72.7027C160.183 72.7027 161.185 71.6569 161.185 70.3669C161.185 69.0768 160.183 68.0311 158.947 68.0311C157.711 68.0311 156.709 69.0768 156.709 70.3669C156.709 71.6569 157.711 72.7027 158.947 72.7027Z" fill="#FD6584"/>
<path d="M187.775 151.314C189.012 151.314 190.014 150.269 190.014 148.979C190.014 147.688 189.012 146.643 187.775 146.643C186.539 146.643 185.537 147.688 185.537 148.979C185.537 150.269 186.539 151.314 187.775 151.314Z" fill="#F2F2F2"/>
<path d="M87.5367 86.8753L87.6216 86.298L98.5535 88.0481C97.4394 86.9258 93.7501 83.4549 90.4042 83.103C86.407 82.6826 84.6483 84.4683 84.4159 86.8749C84.1834 89.2815 85.5652 91.3976 89.5625 91.8181C92.9508 92.1746 97.2964 89.4698 98.5423 88.6372L87.5367 86.8753Z" fill="#F2F2F2"/>
<path d="M178.145 60.2602L177.807 59.7941L186.633 52.8383C185.085 52.8888 180.129 53.2276 177.554 55.4848C174.477 58.1813 174.477 60.742 175.968 62.5942C177.459 64.4463 179.876 64.8886 182.952 62.1921C185.56 59.9064 186.733 54.7699 187.03 53.2575L178.145 60.2602Z" fill="#F2F2F2"/>
<path d="M171.306 122.911L171.063 122.576L177.413 117.572C176.299 117.608 172.733 117.852 170.881 119.476C168.667 121.416 168.667 123.258 169.74 124.591C170.812 125.923 172.551 126.241 174.764 124.301C176.64 122.657 177.484 118.962 177.698 117.873L171.306 122.911Z" fill="#F2F2F2"/>
<path d="M107.041 47.5663C108.761 42.7393 112.826 38.5685 117.738 38.0724C114.785 42.7487 113.512 48.3643 114.144 53.9258C114.396 56.0697 114.889 58.4269 113.782 60.2516C113.093 61.3869 111.878 62.0859 110.627 62.4013C109.375 62.7168 108.07 62.6923 106.783 62.6661L106.494 62.8146C105.589 57.7521 105.321 52.3932 107.041 47.5663Z" fill="#F0F0F0"/>
<path d="M117.762 38.1775C114.413 40.6188 111.887 44.0991 110.542 48.124C110.237 48.9852 110.065 49.8909 110.031 50.8081C110.025 51.7026 110.25 52.5823 110.68 53.3559C111.068 54.0856 111.545 54.7851 111.756 55.6004C111.858 56.0194 111.873 56.4561 111.802 56.882C111.731 57.3078 111.575 57.7132 111.343 58.0715C110.788 58.9799 109.953 59.6259 109.115 60.228C108.185 60.8966 107.209 61.5756 106.64 62.6259C106.571 62.7531 106.386 62.6341 106.455 62.507C107.445 60.6797 109.522 60.016 110.793 58.4639C111.386 57.7396 111.774 56.8245 111.591 55.8601C111.43 55.0168 110.939 54.295 110.54 53.5597C110.11 52.8115 109.861 51.9646 109.817 51.0931C109.806 50.1772 109.944 49.266 110.227 48.3985C110.832 46.4351 111.729 44.5832 112.886 42.9107C114.196 40.9942 115.81 39.3257 117.659 37.9773C117.774 37.8939 117.875 38.0947 117.762 38.1776V38.1775Z" fill="white"/>
<path d="M110.902 46.8014C110.285 46.4742 109.8 45.929 109.534 45.2631C109.267 44.5972 109.235 43.854 109.445 43.1663C109.488 43.0273 109.697 43.0903 109.654 43.2295C109.458 43.8696 109.487 44.5618 109.737 45.1814C109.986 45.8009 110.44 46.3069 111.016 46.6081C111.141 46.6737 111.026 46.8666 110.902 46.8014Z" fill="white"/>
<path d="M110.437 53.0129C111.785 52.5685 112.923 51.6102 113.624 50.3291C113.694 50.2021 113.879 50.3211 113.81 50.4479C113.078 51.7797 111.891 52.7745 110.487 53.2337C110.353 53.2774 110.304 53.0563 110.437 53.0129V53.0129Z" fill="white"/>
<path d="M114.345 41.2519C114.558 41.4304 114.81 41.5508 115.079 41.6023C115.348 41.6539 115.625 41.6349 115.885 41.5471C116.018 41.5017 116.068 41.7228 115.936 41.7679C115.648 41.8635 115.342 41.884 115.045 41.8278C114.748 41.7716 114.468 41.6402 114.231 41.4453C114.207 41.4289 114.19 41.4036 114.183 41.3746C114.177 41.3456 114.181 41.315 114.195 41.2892C114.21 41.2636 114.235 41.2454 114.263 41.2384C114.291 41.2315 114.32 41.2363 114.345 41.2519V41.2519Z" fill="white"/>
<path d="M129.577 50.3763C129.495 50.4072 129.413 50.438 129.33 50.4707C128.224 50.8911 127.152 51.4047 126.126 52.0063C126.045 52.0515 125.965 52.0986 125.886 52.146C123.428 53.6229 121.254 55.5631 119.475 57.8682C118.768 58.7861 118.128 59.7588 117.563 60.7779C116.781 62.1854 116.041 63.7764 114.894 64.8021C114.775 64.9106 114.65 65.0112 114.52 65.1035L106.69 63.1701C106.675 63.1564 106.659 63.1445 106.643 63.1308L106.327 63.0685C106.353 63.0138 106.38 62.9576 106.406 62.903C106.421 62.8712 106.437 62.8398 106.452 62.808C106.462 62.787 106.473 62.7659 106.481 62.7463C106.484 62.7393 106.488 62.7323 106.491 62.7271C106.499 62.7075 106.509 62.6902 106.517 62.6724C106.671 62.3582 106.828 62.0445 106.987 61.7313C106.987 61.7295 106.987 61.7295 106.989 61.728C108.179 59.3301 109.637 57.088 111.333 55.0486C111.385 54.9884 111.436 54.9264 111.491 54.8671C112.266 53.9703 113.11 53.141 114.014 52.3875C114.51 51.9766 115.026 51.5922 115.559 51.2357C116.94 50.3174 118.45 49.6314 120.034 49.2029C123.193 48.3491 126.579 48.5591 129.366 50.2453C129.437 50.2885 129.507 50.3313 129.577 50.3763Z" fill="#F0F0F0"/>
<path d="M129.536 50.4757C125.454 50.321 121.429 51.5125 118.033 53.881C117.293 54.3773 116.633 54.9922 116.077 55.7031C115.556 56.4139 115.228 57.2571 115.125 58.1452C115.014 58.9713 114.991 59.8297 114.689 60.6131C114.529 61.0117 114.289 61.3704 113.987 61.6658C113.685 61.9611 113.326 62.1864 112.934 62.3268C111.966 62.7032 110.927 62.6944 109.911 62.649C108.783 62.5985 107.612 62.5274 106.551 63.0085C106.423 63.0668 106.344 62.8554 106.472 62.7972C108.317 61.9602 110.358 62.7356 112.269 62.2949C113.16 62.0892 113.997 61.602 114.407 60.7168C114.766 59.9427 114.79 59.0575 114.896 58.22C114.984 57.3521 115.274 56.5199 115.741 55.796C116.261 55.0579 116.897 54.4174 117.623 53.9021C119.239 52.7148 121.024 51.8 122.913 51.1913C125.064 50.4841 127.316 50.1662 129.57 50.2514C129.71 50.2567 129.675 50.481 129.536 50.4757L129.536 50.4757Z" fill="white"/>
<path d="M119.084 53.0512C118.78 52.4026 118.708 51.6626 118.879 50.9633C119.05 50.2639 119.454 49.6509 120.018 49.2336C120.132 49.1496 120.263 49.3312 120.148 49.4154C119.622 49.8029 119.246 50.374 119.088 51.0256C118.93 51.6771 119 52.3662 119.286 52.9684C119.348 53.0993 119.145 53.1814 119.084 53.0512V53.0512Z" fill="white"/>
<path d="M115.129 57.7186C116.462 58.2109 117.923 58.1608 119.222 57.5784C119.351 57.5206 119.43 57.732 119.302 57.7897C117.949 58.3932 116.428 58.442 115.042 57.9266C114.91 57.8774 114.998 57.6696 115.129 57.7186Z" fill="white"/>
<path d="M125.034 50.7835C125.102 51.0599 125.234 51.3147 125.419 51.5247C125.604 51.7348 125.836 51.8936 126.094 51.987C126.226 52.0344 126.139 52.2421 126.007 52.195C125.722 52.0904 125.466 51.9147 125.261 51.6831C125.056 51.4515 124.909 51.171 124.832 50.8663C124.822 50.8382 124.823 50.8073 124.835 50.78C124.846 50.7527 124.867 50.731 124.893 50.7192C124.92 50.7084 124.95 50.7091 124.977 50.7211C125.003 50.7331 125.024 50.7555 125.034 50.7835H125.034Z" fill="white"/>
<path d="M97.2595 109.827C98.9798 105 103.044 100.829 107.956 100.333C105.003 105.01 103.73 110.625 104.363 116.187C104.614 118.331 105.108 120.688 104 122.512C103.311 123.648 102.097 124.347 100.845 124.662C99.5931 124.978 98.2887 124.953 97.0011 124.927L96.7129 125.076C95.8073 120.013 95.5392 114.654 97.2595 109.827Z" fill="#F0F0F0"/>
<path d="M107.98 100.438C104.632 102.88 102.105 106.36 100.76 110.385C100.456 111.246 100.283 112.152 100.249 113.069C100.244 113.963 100.468 114.843 100.898 115.617C101.286 116.346 101.763 117.046 101.974 117.861C102.076 118.28 102.092 118.717 102.021 119.143C101.95 119.569 101.793 119.974 101.561 120.332C101.006 121.241 100.171 121.887 99.3334 122.489C98.4035 123.157 97.4275 123.837 96.8585 124.887C96.7895 125.014 96.6044 124.895 96.6732 124.768C97.6631 122.941 99.7407 122.277 101.012 120.725C101.605 120.001 101.992 119.085 101.809 118.121C101.649 117.278 101.157 116.556 100.759 115.821C100.328 115.072 100.08 114.226 100.035 113.354C100.024 112.438 100.163 111.527 100.445 110.659C101.05 108.696 101.948 106.844 103.104 105.172C104.414 103.255 106.029 101.587 107.878 100.238C107.992 100.155 108.094 100.356 107.98 100.438V100.438Z" fill="white"/>
<path d="M101.12 109.062C100.504 108.735 100.019 108.19 99.7519 107.524C99.4851 106.858 99.4538 106.115 99.6636 105.427C99.7065 105.288 99.9155 105.351 99.8726 105.49C99.6761 106.13 99.7053 106.823 99.955 107.442C100.205 108.062 100.658 108.568 101.234 108.869C101.359 108.935 101.244 109.128 101.12 109.062Z" fill="white"/>
<path d="M100.655 115.274C102.003 114.829 103.142 113.871 103.843 112.59C103.912 112.463 104.097 112.582 104.028 112.709C103.296 114.041 102.11 115.035 100.706 115.495C100.572 115.538 100.522 115.317 100.655 115.274Z" fill="white"/>
<path d="M104.563 103.513C104.776 103.691 105.029 103.812 105.298 103.863C105.566 103.915 105.843 103.896 106.103 103.808C106.237 103.763 106.286 103.984 106.154 104.029C105.866 104.124 105.56 104.145 105.263 104.089C104.966 104.032 104.687 103.901 104.449 103.706C104.425 103.69 104.408 103.664 104.402 103.635C104.395 103.606 104.399 103.576 104.414 103.55C104.429 103.525 104.453 103.506 104.481 103.499C104.509 103.492 104.539 103.497 104.563 103.513Z" fill="white"/>
<path d="M119.796 112.637C119.713 112.668 119.631 112.699 119.548 112.732C118.442 113.152 117.37 113.666 116.344 114.267C116.264 114.312 116.183 114.359 116.105 114.407C113.647 115.884 111.473 117.824 109.693 120.129C108.986 121.047 108.347 122.02 107.781 123.039C107 124.446 106.26 126.037 105.112 127.063C104.994 127.171 104.869 127.272 104.738 127.364L96.9088 125.431C96.8932 125.417 96.877 125.405 96.8612 125.392L96.5452 125.329C96.5709 125.275 96.5986 125.219 96.6243 125.164C96.6391 125.132 96.6556 125.101 96.6703 125.069C96.6807 125.048 96.6912 125.027 96.6994 125.007C96.7028 125 96.7064 124.993 96.7094 124.988C96.7176 124.968 96.7272 124.951 96.735 124.933C96.8893 124.619 97.0459 124.305 97.205 123.992C97.2054 123.99 97.2054 123.99 97.2075 123.989C98.3974 121.591 99.8556 119.349 101.552 117.309C101.603 117.249 101.655 117.187 101.71 117.128C102.484 116.231 103.328 115.402 104.232 114.648C104.728 114.237 105.244 113.853 105.778 113.497C107.158 112.578 108.668 111.892 110.253 111.464C113.412 110.61 116.797 110.82 119.584 112.506C119.655 112.549 119.725 112.592 119.796 112.637Z" fill="#F0F0F0"/>
<path d="M119.755 112.737C115.673 112.582 111.648 113.773 108.252 116.142C107.512 116.638 106.852 117.253 106.295 117.964C105.775 118.675 105.446 119.518 105.344 120.406C105.232 121.232 105.21 122.091 104.907 122.874C104.747 123.273 104.508 123.631 104.205 123.927C103.903 124.222 103.544 124.447 103.152 124.588C102.185 124.964 101.145 124.955 100.129 124.91C99.0011 124.859 97.83 124.788 96.7698 125.269C96.6413 125.328 96.5622 125.116 96.6905 125.058C98.5351 124.221 100.577 124.997 102.487 124.556C103.378 124.35 104.216 123.863 104.626 122.978C104.984 122.204 105.008 121.318 105.114 120.481C105.202 119.613 105.492 118.781 105.96 118.057C106.479 117.319 107.116 116.678 107.842 116.163C109.458 114.976 111.243 114.061 113.131 113.452C115.283 112.745 117.534 112.427 119.788 112.512C119.928 112.518 119.893 112.742 119.755 112.737L119.755 112.737Z" fill="white"/>
<path d="M109.302 115.312C108.999 114.664 108.926 113.923 109.097 113.224C109.268 112.525 109.672 111.912 110.236 111.495C110.351 111.41 110.481 111.592 110.367 111.676C109.841 112.064 109.464 112.635 109.306 113.287C109.148 113.938 109.219 114.627 109.505 115.229C109.567 115.36 109.364 115.442 109.302 115.312V115.312Z" fill="white"/>
<path d="M105.347 119.979C106.68 120.472 108.142 120.422 109.441 119.839C109.569 119.781 109.649 119.993 109.52 120.051C108.167 120.654 106.646 120.703 105.26 120.187C105.128 120.138 105.216 119.931 105.347 119.979V119.979Z" fill="white"/>
<path d="M115.253 113.044C115.32 113.321 115.452 113.576 115.637 113.786C115.822 113.996 116.054 114.155 116.312 114.248C116.445 114.295 116.357 114.503 116.225 114.456C115.94 114.351 115.684 114.176 115.479 113.944C115.275 113.712 115.127 113.432 115.05 113.127C115.041 113.099 115.042 113.068 115.053 113.041C115.065 113.014 115.086 112.992 115.112 112.98C115.139 112.969 115.169 112.97 115.195 112.982C115.221 112.994 115.242 113.016 115.253 113.044H115.253Z" fill="white"/>
<path d="M194.721 146.007C193.843 142.582 194.531 138.551 197.099 136.229C197.227 140.082 198.658 143.764 201.137 146.623C202.097 147.721 203.274 148.839 203.349 150.324C203.354 151.26 203.014 152.162 202.399 152.843C201.788 153.515 201.097 154.102 200.343 154.591L200.238 154.794C197.796 152.329 195.599 149.433 194.721 146.007Z" fill="#F0F0F0"/>
<path d="M197.153 136.278C196.205 139.041 196.117 142.046 196.899 144.864C197.057 145.474 197.306 146.055 197.637 146.584C197.976 147.088 198.437 147.489 198.975 147.744C199.491 147.952 199.982 148.225 200.436 148.556C200.653 148.749 200.829 148.988 200.951 149.256C201.074 149.525 201.141 149.817 201.148 150.115C201.144 150.85 200.999 151.577 200.721 152.252C200.454 153.014 200.166 153.801 200.247 154.628C200.257 154.728 200.108 154.738 200.098 154.638C199.956 153.2 200.868 151.964 200.989 150.564C201.035 150.241 201.01 149.912 200.915 149.601C200.82 149.29 200.658 149.006 200.442 148.771C200.03 148.364 199.478 148.163 198.974 147.916C198.446 147.675 197.984 147.303 197.626 146.833C197.27 146.323 197 145.754 196.827 145.15C196.417 143.796 196.213 142.383 196.223 140.963C196.227 139.342 196.496 137.734 197.019 136.208C197.051 136.114 197.185 136.184 197.153 136.278L197.153 136.278Z" fill="white"/>
<path d="M196.596 143.972C196.125 144.045 195.644 143.941 195.24 143.678C194.836 143.415 194.535 143.011 194.39 142.538C194.361 142.442 194.502 142.39 194.531 142.486C194.665 142.927 194.946 143.304 195.323 143.548C195.7 143.792 196.147 143.887 196.586 143.816C196.681 143.801 196.69 143.957 196.596 143.972V143.972Z" fill="white"/>
<path d="M198.707 147.652C199.294 146.842 199.567 145.831 199.471 144.82C199.462 144.72 199.611 144.71 199.621 144.81C199.718 145.862 199.432 146.914 198.82 147.755C198.761 147.835 198.649 147.732 198.707 147.652V147.652Z" fill="white"/>
<path d="M196.409 139.425C196.597 139.437 196.784 139.399 196.955 139.316C197.125 139.233 197.274 139.108 197.386 138.95C197.444 138.869 197.556 138.973 197.499 139.053C197.374 139.226 197.21 139.365 197.022 139.457C196.833 139.549 196.626 139.592 196.419 139.581C196.399 139.582 196.38 139.575 196.365 139.561C196.35 139.548 196.341 139.529 196.339 139.508C196.338 139.488 196.344 139.467 196.357 139.452C196.371 139.436 196.389 139.427 196.409 139.425V139.425Z" fill="white"/>
<path d="M208.444 138.211C208.41 138.262 208.375 138.314 208.341 138.367C207.881 139.063 207.475 139.797 207.129 140.562C207.101 140.62 207.074 140.68 207.048 140.74C206.232 142.591 205.753 144.584 205.635 146.618C205.588 147.428 205.601 148.24 205.673 149.047C205.772 150.162 205.964 151.363 205.712 152.416C205.686 152.526 205.655 152.635 205.617 152.741L200.484 154.912C200.469 154.911 200.456 154.911 200.442 154.91L200.241 155.006C200.234 154.965 200.228 154.922 200.222 154.881C200.218 154.857 200.215 154.832 200.211 154.808C200.209 154.792 200.207 154.776 200.204 154.761C200.203 154.756 200.203 154.751 200.202 154.746C200.199 154.732 200.198 154.718 200.196 154.705C200.162 154.465 200.131 154.223 200.1 153.981C200.1 153.98 200.1 153.98 200.1 153.978C199.852 152.138 199.815 150.272 199.988 148.422C199.994 148.367 199.999 148.311 200.007 148.255C200.099 147.429 200.256 146.613 200.476 145.814C200.598 145.376 200.74 144.946 200.904 144.524C201.328 143.434 201.913 142.421 202.639 141.522C204.086 139.728 206.067 138.438 208.275 138.225C208.332 138.22 208.387 138.215 208.444 138.211Z" fill="#F0F0F0"/>
<path d="M208.459 138.284C206.109 139.895 204.304 142.238 203.303 144.98C203.077 145.566 202.941 146.186 202.9 146.816C202.88 147.432 203.017 148.042 203.299 148.583C203.591 149.074 203.826 149.6 203.997 150.15C204.059 150.44 204.062 150.741 204.005 151.033C203.948 151.324 203.832 151.6 203.666 151.842C203.239 152.426 202.704 152.916 202.092 153.28C201.44 153.721 200.755 154.168 200.344 154.879C200.294 154.965 200.169 154.88 200.218 154.794C200.934 153.557 202.376 153.143 203.28 152.101C203.503 151.872 203.673 151.593 203.777 151.285C203.88 150.977 203.915 150.649 203.878 150.325C203.784 149.742 203.459 149.235 203.199 148.72C202.917 148.197 202.762 147.609 202.747 147.008C202.757 146.378 202.87 145.753 203.08 145.162C203.534 143.824 204.187 142.568 205.014 141.441C205.952 140.149 207.094 139.034 208.392 138.144C208.473 138.089 208.539 138.229 208.459 138.284L208.459 138.284Z" fill="white"/>
<path d="M203.575 144.077C203.157 143.839 202.834 143.454 202.663 142.99C202.492 142.527 202.484 142.015 202.642 141.546C202.674 141.451 202.817 141.499 202.784 141.593C202.637 142.03 202.644 142.507 202.804 142.938C202.964 143.37 203.267 143.727 203.657 143.946C203.742 143.994 203.66 144.125 203.575 144.077V144.077Z" fill="white"/>
<path d="M203.138 148.342C204.074 148.064 204.876 147.428 205.382 146.561C205.432 146.475 205.558 146.561 205.507 146.646C204.979 147.548 204.143 148.208 203.169 148.495C203.076 148.522 203.046 148.369 203.138 148.342V148.342Z" fill="white"/>
<path d="M206.049 140.329C206.193 140.456 206.364 140.544 206.548 140.585C206.732 140.626 206.923 140.619 207.104 140.564C207.196 140.535 207.226 140.689 207.134 140.717C206.935 140.777 206.724 140.785 206.52 140.74C206.317 140.695 206.127 140.599 205.967 140.46C205.951 140.448 205.94 140.43 205.936 140.41C205.932 140.39 205.936 140.369 205.946 140.352C205.957 140.334 205.974 140.322 205.993 140.318C206.013 140.314 206.033 140.318 206.049 140.329V140.329Z" fill="white"/>
</svg>
